<svg xmlns="http://www.w3.org/2000/svg" xmlns:xlink="http://www.w3.org/1999/xlink" width="900" zoomAndPan="magnify" viewBox="0 0 675 299.999988" height="400" preserveAspectRatio="xMidYMid meet" version="1.0"><defs><g/><clipPath id="e6503058f6"><path d="M 28 99.875 L 153 99.875 L 153 130 L 28 130 Z M 28 99.875 " clip-rule="nonzero"/></clipPath><clipPath id="7767f128fe"><path d="M 8 217 L 174 217 L 174 241.625 L 8 241.625 Z M 8 217 " clip-rule="nonzero"/></clipPath><clipPath id="c69f8e4603"><rect x="0" width="481" y="0" height="94"/></clipPath><clipPath id="595bc488b0"><path d="M 37 15 L 55 15 L 55 40.679688 L 37 40.679688 Z M 37 15 " clip-rule="nonzero"/></clipPath><clipPath id="46b22224a0"><rect x="0" width="327" y="0" height="41"/></clipPath></defs><g clip-path="url(#e6503058f6)"><path fill="#192844" d="M 31.84375 105.804688 L 67.199219 105.804688 C 67.199219 105.804688 67.199219 126.429688 67.199219 126.429688 C 67.199219 128.050781 68.527344 129.375 70.144531 129.375 L 111.394531 129.375 C 113.015625 129.375 114.339844 128.050781 114.339844 126.429688 L 114.339844 105.804688 L 149.695312 105.804688 C 151.316406 105.804688 152.640625 104.476562 152.640625 102.859375 C 152.640625 101.238281 151.316406 99.910156 149.695312 99.910156 L 31.84375 99.910156 C 28.015625 99.976562 27.941406 105.722656 31.84375 105.804688 Z M 31.84375 105.804688 " fill-opacity="1" fill-rule="nonzero"/></g><g clip-path="url(#7767f128fe)"><path fill="#192844" d="M 161.480469 217.773438 L 20.058594 217.773438 C 13.726562 217.648438 8.148438 223.222656 8.273438 229.558594 C 8.273438 236.070312 13.546875 241.347656 20.058594 241.347656 L 161.480469 241.347656 C 164.632812 241.347656 167.578125 240.109375 169.816406 237.898438 C 177.195312 230.765625 171.808594 217.570312 161.480469 217.773438 Z M 161.480469 217.773438 " fill-opacity="1" fill-rule="nonzero"/></g><path fill="#192844" d="M 161.480469 200.09375 L 20.058594 200.09375 C 16.90625 200.09375 13.960938 201.332031 11.722656 203.542969 C 8.5625 206.667969 7.386719 211.644531 8.980469 215.800781 C 12.164062 213.234375 16.023438 211.878906 20.058594 211.878906 L 161.480469 211.878906 C 165.691406 211.878906 169.550781 213.355469 172.585938 215.800781 C 175.355469 208.347656 169.472656 199.941406 161.480469 200.09375 Z M 161.480469 200.09375 " fill-opacity="1" fill-rule="nonzero"/><path fill="#192844" d="M 93.714844 173.574219 L 93.714844 162.863281 L 107.769531 145.996094 C 107.886719 145.847656 107.945312 145.671875 108.035156 145.523438 C 108.316406 145.128906 108.4375 144.628906 108.445312 144.109375 C 108.445312 144.109375 108.445312 135.269531 108.445312 135.269531 L 73.09375 135.269531 C 73.234375 136.710938 72.707031 144.957031 73.503906 145.523438 C 73.59375 145.671875 73.652344 145.847656 73.769531 145.996094 L 87.824219 162.863281 C 87.824219 162.863281 87.824219 173.574219 87.824219 173.574219 C 87.824219 181.707031 94.421875 188.308594 102.554688 188.308594 L 161.480469 188.308594 C 164.71875 188.308594 167.371094 190.960938 167.371094 194.203125 C 167.371094 194.554688 167.34375 194.878906 167.285156 195.203125 C 169.226562 195.851562 171.023438 196.851562 172.585938 198.121094 C 173.027344 196.882812 173.265625 195.585938 173.265625 194.203125 C 173.265625 187.6875 167.992188 182.414062 161.480469 182.414062 L 102.554688 182.414062 C 97.691406 182.414062 93.714844 178.4375 93.714844 173.574219 Z M 93.714844 173.574219 " fill-opacity="1" fill-rule="nonzero"/><g transform="matrix(1, 0, 0, 1, 183, 118)"><g clip-path="url(#c69f8e4603)"><g fill="#2db7fa" fill-opacity="1"><g transform="translate(0.987525, 73.585202)"><g><path d="M 44.71875 -45.03125 C 46.0625 -42.3125 46.734375 -39.285156 46.734375 -35.953125 C 46.734375 -32.617188 46.0625 -29.601562 44.71875 -26.90625 C 43.382812 -24.207031 41.664062 -22.066406 39.5625 -20.484375 C 35.3125 -17.191406 30.898438 -15.546875 26.328125 -15.546875 L 16.703125 -15.546875 L 16.703125 -6.859375 C 16.703125 -5.671875 16.660156 -4.78125 16.578125 -4.1875 C 16.503906 -3.601562 16.265625 -2.925781 15.859375 -2.15625 C 15.140625 -0.769531 13.140625 -0.078125 9.859375 -0.078125 C 6.265625 -0.078125 4.160156 -1.023438 3.546875 -2.921875 C 3.234375 -3.796875 3.078125 -5.128906 3.078125 -6.921875 L 3.078125 -49.65625 C 3.078125 -50.832031 3.113281 -51.71875 3.1875 -52.3125 C 3.269531 -52.90625 3.515625 -53.582031 3.921875 -54.34375 C 4.640625 -55.726562 6.644531 -56.421875 9.9375 -56.421875 L 26.40625 -56.421875 C 30.925781 -56.421875 35.3125 -54.78125 39.5625 -51.5 C 41.664062 -49.90625 43.382812 -47.75 44.71875 -45.03125 Z M 26.40625 -29.171875 C 27.945312 -29.171875 29.460938 -29.734375 30.953125 -30.859375 C 32.441406 -31.992188 33.1875 -33.691406 33.1875 -35.953125 C 33.1875 -38.210938 32.441406 -39.914062 30.953125 -41.0625 C 29.460938 -42.21875 27.921875 -42.796875 26.328125 -42.796875 L 16.703125 -42.796875 L 16.703125 -29.171875 Z M 26.40625 -29.171875 "/></g></g></g><g fill="#2db7fa" fill-opacity="1"><g transform="translate(49.643819, 73.585202)"><g><path d="M 46.265625 -9.546875 C 47.035156 -7.703125 47.421875 -6.367188 47.421875 -5.546875 C 47.421875 -3.597656 45.832031 -1.953125 42.65625 -0.609375 C 41.007812 0.109375 39.6875 0.46875 38.6875 0.46875 C 37.6875 0.46875 36.863281 0.222656 36.21875 -0.265625 C 35.582031 -0.753906 35.109375 -1.253906 34.796875 -1.765625 C 34.285156 -2.742188 32.285156 -7.390625 28.796875 -15.703125 L 26.40625 -15.546875 L 16.703125 -15.546875 L 16.703125 -6.859375 C 16.703125 -5.671875 16.660156 -4.78125 16.578125 -4.1875 C 16.503906 -3.601562 16.265625 -2.925781 15.859375 -2.15625 C 15.140625 -0.769531 13.140625 -0.078125 9.859375 -0.078125 C 6.265625 -0.078125 4.160156 -1.023438 3.546875 -2.921875 C 3.234375 -3.796875 3.078125 -5.128906 3.078125 -6.921875 L 3.078125 -49.65625 C 3.078125 -50.832031 3.113281 -51.71875 3.1875 -52.3125 C 3.269531 -52.90625 3.515625 -53.582031 3.921875 -54.34375 C 4.640625 -55.726562 6.644531 -56.421875 9.9375 -56.421875 L 26.5625 -56.421875 C 31.070312 -56.421875 35.457031 -54.78125 39.71875 -51.5 C 41.769531 -49.90625 43.460938 -47.75 44.796875 -45.03125 C 46.140625 -42.3125 46.8125 -39.285156 46.8125 -35.953125 C 46.8125 -30.148438 44.882812 -25.375 41.03125 -21.625 C 42.15625 -18.90625 43.898438 -14.878906 46.265625 -9.546875 Z M 16.703125 -29.171875 L 26.5625 -29.171875 C 28.050781 -29.171875 29.535156 -29.734375 31.015625 -30.859375 C 32.503906 -31.992188 33.25 -33.691406 33.25 -35.953125 C 33.25 -38.210938 32.503906 -39.914062 31.015625 -41.0625 C 29.535156 -42.21875 28 -42.796875 26.40625 -42.796875 L 16.703125 -42.796875 Z M 16.703125 -29.171875 "/></g></g></g><g fill="#2db7fa" fill-opacity="1"><g transform="translate(98.22315, 73.585202)"><g><path d="M 3.078125 -49.65625 C 3.078125 -50.832031 3.113281 -51.71875 3.1875 -52.3125 C 3.269531 -52.90625 3.515625 -53.582031 3.921875 -54.34375 C 4.640625 -55.726562 6.644531 -56.421875 9.9375 -56.421875 C 13.519531 -56.421875 15.648438 -55.472656 16.328125 -53.578125 C 16.578125 -52.703125 16.703125 -51.367188 16.703125 -49.578125 L 16.703125 -6.78125 C 16.703125 -5.539062 16.660156 -4.640625 16.578125 -4.078125 C 16.503906 -3.515625 16.265625 -2.847656 15.859375 -2.078125 C 15.140625 -0.691406 13.140625 0 9.859375 0 C 6.265625 0 4.160156 -0.972656 3.546875 -2.921875 C 3.234375 -3.742188 3.078125 -5.054688 3.078125 -6.859375 Z M 3.078125 -49.65625 "/></g></g></g><g fill="#2db7fa" fill-opacity="1"><g transform="translate(118.009042, 73.585202)"><g><path d="M 39.53125 -54.078125 C 40.019531 -54.972656 40.75 -55.578125 41.71875 -55.890625 C 42.695312 -56.203125 43.914062 -56.359375 45.375 -56.359375 C 46.84375 -56.359375 48.023438 -56.226562 48.921875 -55.96875 C 49.816406 -55.707031 50.484375 -55.394531 50.921875 -55.03125 C 51.359375 -54.675781 51.679688 -54.140625 51.890625 -53.421875 C 52.191406 -52.609375 52.34375 -51.300781 52.34375 -49.5 L 52.34375 -6.78125 C 52.34375 -5.539062 52.304688 -4.640625 52.234375 -4.078125 C 52.160156 -3.515625 51.914062 -2.847656 51.5 -2.078125 C 50.78125 -0.691406 48.78125 0 45.5 0 C 43.5 0 42.113281 -0.148438 41.34375 -0.453125 C 40.570312 -0.765625 39.929688 -1.253906 39.421875 -1.921875 C 27.867188 -17.316406 20.269531 -27.378906 16.625 -32.109375 L 16.625 -6.78125 C 16.625 -5.539062 16.582031 -4.640625 16.5 -4.078125 C 16.425781 -3.515625 16.1875 -2.847656 15.78125 -2.078125 C 15.0625 -0.691406 13.0625 0 9.78125 0 C 6.59375 0 4.640625 -0.691406 3.921875 -2.078125 C 3.515625 -2.847656 3.269531 -3.539062 3.1875 -4.15625 C 3.113281 -4.769531 3.078125 -5.671875 3.078125 -6.859375 L 3.078125 -49.8125 C 3.078125 -51.757812 3.320312 -53.179688 3.8125 -54.078125 C 4.300781 -54.972656 5.03125 -55.578125 6 -55.890625 C 6.976562 -56.203125 8.238281 -56.359375 9.78125 -56.359375 C 11.320312 -56.359375 12.539062 -56.210938 13.4375 -55.921875 C 14.332031 -55.640625 14.957031 -55.320312 15.3125 -54.96875 C 15.519531 -54.8125 16.113281 -54.144531 17.09375 -52.96875 C 27.914062 -38.238281 35.148438 -28.507812 38.796875 -23.78125 L 38.796875 -49.8125 C 38.796875 -51.757812 39.039062 -53.179688 39.53125 -54.078125 Z M 39.53125 -54.078125 "/></g></g></g><g fill="#2db7fa" fill-opacity="1"><g transform="translate(173.440263, 73.585202)"><g><path d="M 6.78125 -56.5 L 49.578125 -56.5 C 51.222656 -56.5 52.425781 -56.304688 53.1875 -55.921875 C 53.957031 -55.546875 54.472656 -54.945312 54.734375 -54.125 C 54.992188 -53.300781 55.125 -52.222656 55.125 -50.890625 C 55.125 -49.554688 54.992188 -48.488281 54.734375 -47.6875 C 54.472656 -46.894531 54.035156 -46.34375 53.421875 -46.03125 C 52.503906 -45.570312 51.195312 -45.34375 49.5 -45.34375 L 34.796875 -45.34375 L 34.796875 -6.625 C 34.796875 -5.4375 34.753906 -4.5625 34.671875 -4 C 34.597656 -3.4375 34.367188 -2.78125 33.984375 -2.03125 C 33.597656 -1.289062 32.914062 -0.765625 31.9375 -0.453125 C 30.96875 -0.148438 29.6875 0 28.09375 0 C 26.507812 0 25.238281 -0.148438 24.28125 -0.453125 C 23.332031 -0.765625 22.664062 -1.289062 22.28125 -2.03125 C 21.894531 -2.78125 21.664062 -3.445312 21.59375 -4.03125 C 21.519531 -4.625 21.484375 -5.515625 21.484375 -6.703125 L 21.484375 -45.34375 L 6.703125 -45.34375 C 5.054688 -45.34375 3.847656 -45.535156 3.078125 -45.921875 C 2.304688 -46.304688 1.789062 -46.910156 1.53125 -47.734375 C 1.28125 -48.554688 1.15625 -49.632812 1.15625 -50.96875 C 1.15625 -52.300781 1.28125 -53.363281 1.53125 -54.15625 C 1.789062 -54.957031 2.226562 -55.507812 2.84375 -55.8125 C 3.769531 -56.269531 5.082031 -56.5 6.78125 -56.5 Z M 6.78125 -56.5 "/></g></g></g><g fill="#2db7fa" fill-opacity="1"><g transform="translate(229.718374, 73.585202)"><g><path d="M 3.078125 -49.65625 C 3.078125 -50.832031 3.113281 -51.71875 3.1875 -52.3125 C 3.269531 -52.90625 3.515625 -53.582031 3.921875 -54.34375 C 4.640625 -55.726562 6.644531 -56.421875 9.9375 -56.421875 C 13.519531 -56.421875 15.648438 -55.472656 16.328125 -53.578125 C 16.578125 -52.703125 16.703125 -51.367188 16.703125 -49.578125 L 16.703125 -6.78125 C 16.703125 -5.539062 16.660156 -4.640625 16.578125 -4.078125 C 16.503906 -3.515625 16.265625 -2.847656 15.859375 -2.078125 C 15.140625 -0.691406 13.140625 0 9.859375 0 C 6.265625 0 4.160156 -0.972656 3.546875 -2.921875 C 3.234375 -3.742188 3.078125 -5.054688 3.078125 -6.859375 Z M 3.078125 -49.65625 "/></g></g></g><g fill="#2db7fa" fill-opacity="1"><g transform="translate(249.504266, 73.585202)"><g><path d="M 27.25 -28.328125 C 35.101562 -20.785156 40.671875 -15.113281 43.953125 -11.3125 C 45.648438 -9.414062 46.5 -7.8125 46.5 -6.5 C 46.5 -5.195312 45.472656 -3.660156 43.421875 -1.890625 C 41.367188 -0.117188 39.6875 0.765625 38.375 0.765625 C 37.0625 0.765625 35.484375 -0.3125 33.640625 -2.46875 L 16.703125 -21.78125 L 16.703125 -6.78125 C 16.703125 -5.539062 16.660156 -4.640625 16.578125 -4.078125 C 16.503906 -3.515625 16.265625 -2.847656 15.859375 -2.078125 C 15.140625 -0.691406 13.140625 0 9.859375 0 C 6.265625 0 4.160156 -0.972656 3.546875 -2.921875 C 3.234375 -3.742188 3.078125 -5.054688 3.078125 -6.859375 L 3.078125 -49.65625 C 3.078125 -50.832031 3.113281 -51.71875 3.1875 -52.3125 C 3.269531 -52.90625 3.515625 -53.582031 3.921875 -54.34375 C 4.640625 -55.726562 6.644531 -56.421875 9.9375 -56.421875 C 13.519531 -56.421875 15.648438 -55.472656 16.328125 -53.578125 C 16.578125 -52.703125 16.703125 -51.367188 16.703125 -49.578125 L 16.703125 -34.875 C 23.679688 -42.726562 29.328125 -49.171875 33.640625 -54.203125 C 35.441406 -56.304688 37.007812 -57.359375 38.34375 -57.359375 C 39.675781 -57.359375 41.367188 -56.472656 43.421875 -54.703125 C 45.472656 -52.929688 46.5 -51.390625 46.5 -50.078125 C 46.5 -48.765625 45.726562 -47.210938 44.1875 -45.421875 C 41.207031 -41.984375 36.585938 -37.257812 30.328125 -31.25 Z M 27.25 -28.328125 "/></g></g></g><g fill="#2db7fa" fill-opacity="1"><g transform="translate(298.6995, 73.585202)"><g><path d="M 35.640625 -52.421875 L 56.421875 -9.46875 C 57.296875 -7.726562 57.734375 -6.421875 57.734375 -5.546875 C 57.734375 -3.691406 56.242188 -2.019531 53.265625 -0.53125 C 51.523438 0.332031 50.15625 0.765625 49.15625 0.765625 C 48.15625 0.765625 47.332031 0.535156 46.6875 0.078125 C 46.050781 -0.378906 45.585938 -0.863281 45.296875 -1.375 C 45.015625 -1.894531 44.617188 -2.664062 44.109375 -3.6875 L 40.109375 -12.015625 L 18.78125 -12.015625 L 14.78125 -3.6875 C 14.269531 -2.664062 13.875 -1.921875 13.59375 -1.453125 C 13.3125 -0.992188 12.847656 -0.519531 12.203125 -0.03125 C 11.554688 0.445312 10.734375 0.6875 9.734375 0.6875 C 8.734375 0.6875 7.363281 0.253906 5.625 -0.609375 C 2.644531 -2.046875 1.15625 -3.691406 1.15625 -5.546875 C 1.15625 -6.421875 1.59375 -7.726562 2.46875 -9.46875 L 23.25 -52.5 C 23.8125 -53.6875 24.671875 -54.632812 25.828125 -55.34375 C 26.984375 -56.0625 28.203125 -56.421875 29.484375 -56.421875 C 32.253906 -56.421875 34.304688 -55.085938 35.640625 -52.421875 Z M 29.40625 -33.953125 L 24.328125 -23.40625 L 34.5625 -23.40625 Z M 29.40625 -33.953125 "/></g></g></g><g fill="#2db7fa" fill-opacity="1"><g transform="translate(357.595197, 73.585202)"><g/></g></g><g fill="#2db7fa" fill-opacity="1"><g transform="translate(377.073138, 73.585202)"><g><path d="M 23.25 -57.28125 C 29.5625 -57.28125 34.539062 -55.484375 38.1875 -51.890625 C 41.832031 -48.296875 43.65625 -44.253906 43.65625 -39.765625 C 43.65625 -35.273438 41.648438 -32.03125 37.640625 -30.03125 L 37.640625 -29.484375 C 38.160156 -29.222656 38.921875 -28.671875 39.921875 -27.828125 C 40.921875 -26.984375 41.726562 -26.148438 42.34375 -25.328125 C 44.03125 -23.171875 44.875 -20.707031 44.875 -17.9375 C 44.875 -12.445312 42.820312 -7.914062 38.71875 -4.34375 C 34.613281 -0.78125 29.457031 1 23.25 1 C 17.09375 1 11.960938 -0.796875 7.859375 -4.390625 C 6.316406 -5.773438 4.953125 -7.597656 3.765625 -9.859375 C 3.359375 -10.671875 3.078125 -11.335938 2.921875 -11.859375 L 2.765625 -12.625 C 2.203125 -14.320312 1.921875 -15.707031 1.921875 -16.78125 C 1.921875 -19.757812 4.4375 -21.25 9.46875 -21.25 C 11.519531 -21.25 12.878906 -20.992188 13.546875 -20.484375 C 14.421875 -19.816406 15.191406 -18.476562 15.859375 -16.46875 C 16.367188 -14.832031 17.78125 -13.601562 20.09375 -12.78125 C 21.070312 -12.46875 22.148438 -12.3125 23.328125 -12.3125 C 26.046875 -12.3125 28.046875 -12.863281 29.328125 -13.96875 C 30.609375 -15.070312 31.25 -16.316406 31.25 -17.703125 C 31.25 -19.085938 30.617188 -20.304688 29.359375 -21.359375 C 28.109375 -22.410156 26.625 -22.9375 24.90625 -22.9375 C 23.1875 -22.9375 22.019531 -22.988281 21.40625 -23.09375 C 20.789062 -23.195312 20.125 -23.453125 19.40625 -23.859375 C 18.019531 -24.523438 17.328125 -26.503906 17.328125 -29.796875 C 17.328125 -33.390625 18.273438 -35.519531 20.171875 -36.1875 C 21.046875 -36.4375 22.378906 -36.5625 24.171875 -36.5625 C 28.078125 -36.5625 30.03125 -37.5625 30.03125 -39.5625 C 30.03125 -40.644531 29.515625 -41.671875 28.484375 -42.640625 C 27.453125 -43.617188 26.023438 -44.109375 24.203125 -44.109375 C 22.390625 -44.109375 20.941406 -43.800781 19.859375 -43.1875 C 18.785156 -42.570312 18.117188 -41.957031 17.859375 -41.34375 L 17.40625 -40.421875 C 16.21875 -37.847656 14.519531 -36.5625 12.3125 -36.5625 C 11.03125 -36.5625 9.617188 -37.023438 8.078125 -37.953125 C 5.515625 -39.441406 4.234375 -41.160156 4.234375 -43.109375 C 4.234375 -43.929688 4.820312 -45.675781 6 -48.34375 C 6.207031 -48.8125 6.769531 -49.617188 7.6875 -50.765625 C 8.613281 -51.921875 9.679688 -52.9375 10.890625 -53.8125 C 12.097656 -54.6875 13.789062 -55.484375 15.96875 -56.203125 C 18.15625 -56.921875 20.582031 -57.28125 23.25 -57.28125 Z M 23.25 -57.28125 "/></g></g></g><g fill="#2db7fa" fill-opacity="1"><g transform="translate(423.881725, 73.585202)"><g><path d="M 9.9375 -56.5 L 24.171875 -56.421875 C 31.609375 -56.421875 38.148438 -53.738281 43.796875 -48.375 C 49.441406 -43.019531 52.265625 -36.425781 52.265625 -28.59375 C 52.265625 -20.769531 49.503906 -14.0625 43.984375 -8.46875 C 38.472656 -2.875 31.789062 -0.078125 23.9375 -0.078125 L 9.859375 -0.078125 C 6.722656 -0.078125 4.769531 -0.71875 4 -2 C 3.382812 -3.082031 3.078125 -4.722656 3.078125 -6.921875 L 3.078125 -49.734375 C 3.078125 -50.960938 3.113281 -51.859375 3.1875 -52.421875 C 3.269531 -52.984375 3.515625 -53.648438 3.921875 -54.421875 C 4.640625 -55.804688 6.644531 -56.5 9.9375 -56.5 Z M 24.171875 -13.703125 C 27.867188 -13.703125 31.203125 -15.070312 34.171875 -17.8125 C 37.148438 -20.5625 38.640625 -24.015625 38.640625 -28.171875 C 38.640625 -32.328125 37.191406 -35.800781 34.296875 -38.59375 C 31.398438 -41.394531 28 -42.796875 24.09375 -42.796875 L 16.703125 -42.796875 L 16.703125 -13.703125 Z M 24.171875 -13.703125 "/></g></g></g></g></g><g transform="matrix(1, 0, 0, 1, 333, 201)"><g clip-path="url(#46b22224a0)"><g fill="#000000" fill-opacity="1"><g transform="translate(0.688961, 32.726411)"><g><path d="M 1.296875 -20.90625 C 1.296875 -21.394531 1.3125 -21.765625 1.34375 -22.015625 C 1.375 -22.265625 1.476562 -22.550781 1.65625 -22.875 C 1.957031 -23.457031 2.800781 -23.75 4.1875 -23.75 C 5.695312 -23.75 6.59375 -23.351562 6.875 -22.5625 C 6.976562 -22.1875 7.03125 -21.625 7.03125 -20.875 L 7.03125 -2.859375 C 7.03125 -2.335938 7.015625 -1.957031 6.984375 -1.71875 C 6.953125 -1.476562 6.847656 -1.195312 6.671875 -0.875 C 6.367188 -0.289062 5.523438 0 4.140625 0 C 2.628906 0 1.742188 -0.410156 1.484375 -1.234375 C 1.359375 -1.578125 1.296875 -2.128906 1.296875 -2.890625 Z M 1.296875 -20.90625 "/></g></g></g><g fill="#000000" fill-opacity="1"><g transform="translate(9.013315, 32.726411)"><g><path d="M 6.875 -14.8125 C 7.882812 -16.34375 9.101562 -17.109375 10.53125 -17.109375 C 12.738281 -17.109375 14.378906 -16.171875 15.453125 -14.296875 C 15.691406 -14.617188 15.976562 -14.957031 16.3125 -15.3125 C 16.644531 -15.664062 17.175781 -16.050781 17.90625 -16.46875 C 18.644531 -16.894531 19.40625 -17.109375 20.1875 -17.109375 C 21.914062 -17.109375 23.363281 -16.441406 24.53125 -15.109375 C 25.695312 -13.785156 26.28125 -11.585938 26.28125 -8.515625 L 26.28125 -2.859375 C 26.28125 -2.359375 26.265625 -1.984375 26.234375 -1.734375 C 26.203125 -1.484375 26.097656 -1.195312 25.921875 -0.875 C 25.640625 -0.289062 24.8125 0 23.4375 0 C 22.070312 0 21.238281 -0.300781 20.9375 -0.90625 C 20.78125 -1.226562 20.6875 -1.515625 20.65625 -1.765625 C 20.625 -2.015625 20.609375 -2.390625 20.609375 -2.890625 L 20.609375 -8.5625 C 20.609375 -10.4375 19.9375 -11.375 18.59375 -11.375 C 17.84375 -11.375 17.332031 -11.125 17.0625 -10.625 C 16.789062 -10.132812 16.65625 -9.429688 16.65625 -8.515625 L 16.65625 -2.859375 C 16.65625 -2.335938 16.640625 -1.957031 16.609375 -1.71875 C 16.578125 -1.476562 16.472656 -1.195312 16.296875 -0.875 C 15.992188 -0.289062 15.148438 0 13.765625 0 C 12.410156 0 11.582031 -0.300781 11.28125 -0.90625 C 11.125 -1.226562 11.03125 -1.515625 11 -1.765625 C 10.96875 -2.015625 10.953125 -2.390625 10.953125 -2.890625 L 10.953125 -8.5625 C 10.953125 -10.4375 10.28125 -11.375 8.9375 -11.375 C 7.644531 -11.375 7 -10.4375 7 -8.5625 L 7 -2.8125 C 7 -2.320312 6.984375 -1.953125 6.953125 -1.703125 C 6.921875 -1.453125 6.816406 -1.164062 6.640625 -0.84375 C 6.316406 -0.28125 5.472656 0 4.109375 0 C 2.753906 0 1.925781 -0.289062 1.625 -0.875 C 1.46875 -1.195312 1.375 -1.476562 1.34375 -1.71875 C 1.3125 -1.957031 1.296875 -2.335938 1.296875 -2.859375 L 1.296875 -14.265625 C 1.296875 -14.753906 1.3125 -15.125 1.34375 -15.375 C 1.375 -15.625 1.476562 -15.898438 1.65625 -16.203125 C 1.976562 -16.785156 2.742188 -17.078125 3.953125 -17.078125 C 5.160156 -17.078125 5.945312 -16.878906 6.3125 -16.484375 C 6.6875 -16.097656 6.875 -15.539062 6.875 -14.8125 Z M 6.875 -14.8125 "/></g></g></g><g clip-path="url(#595bc488b0)"><g fill="#000000" fill-opacity="1"><g transform="translate(36.577632, 32.726411)"><g><path d="M 1.296875 4.640625 L 1.296875 -14.296875 C 1.296875 -14.785156 1.3125 -15.148438 1.34375 -15.390625 C 1.375 -15.628906 1.46875 -15.898438 1.625 -16.203125 C 1.925781 -16.785156 2.648438 -17.078125 3.796875 -17.078125 C 4.941406 -17.078125 5.710938 -16.929688 6.109375 -16.640625 C 6.503906 -16.347656 6.738281 -15.921875 6.8125 -15.359375 C 7.625 -16.484375 8.910156 -17.046875 10.671875 -17.046875 C 12.429688 -17.046875 14.097656 -16.210938 15.671875 -14.546875 C 17.253906 -12.890625 18.046875 -10.957031 18.046875 -8.75 C 18.046875 -6.539062 17.257812 -4.601562 15.6875 -2.9375 C 14.125 -1.28125 12.457031 -0.453125 10.6875 -0.453125 C 8.914062 -0.453125 7.632812 -0.945312 6.84375 -1.9375 L 6.84375 4.609375 C 6.84375 5.097656 6.820312 5.460938 6.78125 5.703125 C 6.75 5.941406 6.648438 6.21875 6.484375 6.53125 C 6.328125 6.84375 6.054688 7.0625 5.671875 7.1875 C 5.285156 7.320312 4.753906 7.390625 4.078125 7.390625 C 3.410156 7.390625 2.875 7.320312 2.46875 7.1875 C 2.070312 7.0625 1.789062 6.847656 1.625 6.546875 C 1.46875 6.242188 1.375 5.972656 1.34375 5.734375 C 1.3125 5.492188 1.296875 5.128906 1.296875 4.640625 Z M 7.703125 -10.625 C 7.210938 -10.039062 6.96875 -9.40625 6.96875 -8.71875 C 6.96875 -8.03125 7.21875 -7.398438 7.71875 -6.828125 C 8.226562 -6.253906 8.878906 -5.96875 9.671875 -5.96875 C 10.460938 -5.96875 11.132812 -6.242188 11.6875 -6.796875 C 12.238281 -7.359375 12.515625 -7.992188 12.515625 -8.703125 C 12.515625 -9.421875 12.253906 -10.066406 11.734375 -10.640625 C 11.210938 -11.210938 10.535156 -11.5 9.703125 -11.5 C 8.867188 -11.5 8.203125 -11.207031 7.703125 -10.625 Z M 7.703125 -10.625 "/></g></g></g></g><g fill="#000000" fill-opacity="1"><g transform="translate(55.428897, 32.726411)"><g><path d="M 12.890625 -16.875 C 13.304688 -16.75 13.648438 -16.53125 13.921875 -16.21875 C 14.191406 -15.90625 14.328125 -15.398438 14.328125 -14.703125 C 14.328125 -14.015625 14.117188 -13.257812 13.703125 -12.4375 C 13.296875 -11.625 12.703125 -11.21875 11.921875 -11.21875 C 11.535156 -11.21875 11.160156 -11.300781 10.796875 -11.46875 C 10.441406 -11.644531 9.972656 -11.734375 9.390625 -11.734375 C 8.804688 -11.734375 8.257812 -11.523438 7.75 -11.109375 C 7.25 -10.703125 7 -10.207031 7 -9.625 L 7 -2.8125 C 7 -2.320312 6.984375 -1.953125 6.953125 -1.703125 C 6.921875 -1.453125 6.816406 -1.164062 6.640625 -0.84375 C 6.316406 -0.28125 5.472656 0 4.109375 0 C 3.078125 0 2.332031 -0.179688 1.875 -0.546875 C 1.53125 -0.847656 1.335938 -1.3125 1.296875 -1.9375 C 1.296875 -2.15625 1.296875 -2.472656 1.296875 -2.890625 L 1.296875 -14.265625 C 1.296875 -14.753906 1.3125 -15.125 1.34375 -15.375 C 1.375 -15.625 1.46875 -15.898438 1.625 -16.203125 C 1.925781 -16.785156 2.765625 -17.078125 4.140625 -17.078125 C 5.441406 -17.078125 6.253906 -16.828125 6.578125 -16.328125 C 6.816406 -15.984375 6.9375 -15.628906 6.9375 -15.265625 C 7.039062 -15.410156 7.195312 -15.59375 7.40625 -15.8125 C 7.613281 -16.03125 8.050781 -16.320312 8.71875 -16.6875 C 9.382812 -17.050781 9.972656 -17.234375 10.484375 -17.234375 C 10.992188 -17.234375 11.421875 -17.207031 11.765625 -17.15625 C 12.109375 -17.101562 12.484375 -17.007812 12.890625 -16.875 Z M 12.890625 -16.875 "/></g></g></g><g fill="#000000" fill-opacity="1"><g transform="translate(70.231357, 32.726411)"><g><path d="M 1.296875 -14.21875 C 1.296875 -14.71875 1.3125 -15.09375 1.34375 -15.34375 C 1.375 -15.59375 1.46875 -15.878906 1.625 -16.203125 C 1.925781 -16.765625 2.765625 -17.046875 4.140625 -17.046875 C 5.179688 -17.046875 5.921875 -16.863281 6.359375 -16.5 C 6.722656 -16.195312 6.914062 -15.726562 6.9375 -15.09375 C 6.957031 -14.882812 6.96875 -14.570312 6.96875 -14.15625 L 6.96875 -2.8125 C 6.96875 -2.320312 6.953125 -1.953125 6.921875 -1.703125 C 6.890625 -1.453125 6.785156 -1.164062 6.609375 -0.84375 C 6.328125 -0.28125 5.492188 0 4.109375 0 C 2.753906 0 1.925781 -0.289062 1.625 -0.875 C 1.46875 -1.195312 1.375 -1.476562 1.34375 -1.71875 C 1.3125 -1.957031 1.296875 -2.335938 1.296875 -2.859375 Z M 6.625 -20.234375 C 6.46875 -19.921875 6.179688 -19.695312 5.765625 -19.5625 C 5.359375 -19.4375 4.8125 -19.375 4.125 -19.375 C 3.445312 -19.375 2.898438 -19.4375 2.484375 -19.5625 C 2.078125 -19.695312 1.789062 -19.925781 1.625 -20.25 C 1.46875 -20.570312 1.375 -20.859375 1.34375 -21.109375 C 1.3125 -21.359375 1.296875 -21.726562 1.296875 -22.21875 C 1.296875 -22.71875 1.3125 -23.09375 1.34375 -23.34375 C 1.375 -23.59375 1.46875 -23.867188 1.625 -24.171875 C 1.925781 -24.753906 2.765625 -25.046875 4.140625 -25.046875 C 5.503906 -25.046875 6.328125 -24.753906 6.609375 -24.171875 C 6.785156 -23.847656 6.890625 -23.5625 6.921875 -23.3125 C 6.953125 -23.0625 6.96875 -22.6875 6.96875 -22.1875 C 6.96875 -21.695312 6.953125 -21.328125 6.921875 -21.078125 C 6.890625 -20.828125 6.789062 -20.546875 6.625 -20.234375 Z M 6.625 -20.234375 "/></g></g></g><g fill="#000000" fill-opacity="1"><g transform="translate(78.490936, 32.726411)"><g><path d="M 6.875 -14.8125 C 7.882812 -16.34375 9.101562 -17.109375 10.53125 -17.109375 C 12.738281 -17.109375 14.378906 -16.171875 15.453125 -14.296875 C 15.691406 -14.617188 15.976562 -14.957031 16.3125 -15.3125 C 16.644531 -15.664062 17.175781 -16.050781 17.90625 -16.46875 C 18.644531 -16.894531 19.40625 -17.109375 20.1875 -17.109375 C 21.914062 -17.109375 23.363281 -16.441406 24.53125 -15.109375 C 25.695312 -13.785156 26.28125 -11.585938 26.28125 -8.515625 L 26.28125 -2.859375 C 26.28125 -2.359375 26.265625 -1.984375 26.234375 -1.734375 C 26.203125 -1.484375 26.097656 -1.195312 25.921875 -0.875 C 25.640625 -0.289062 24.8125 0 23.4375 0 C 22.070312 0 21.238281 -0.300781 20.9375 -0.90625 C 20.78125 -1.226562 20.6875 -1.515625 20.65625 -1.765625 C 20.625 -2.015625 20.609375 -2.390625 20.609375 -2.890625 L 20.609375 -8.5625 C 20.609375 -10.4375 19.9375 -11.375 18.59375 -11.375 C 17.84375 -11.375 17.332031 -11.125 17.0625 -10.625 C 16.789062 -10.132812 16.65625 -9.429688 16.65625 -8.515625 L 16.65625 -2.859375 C 16.65625 -2.335938 16.640625 -1.957031 16.609375 -1.71875 C 16.578125 -1.476562 16.472656 -1.195312 16.296875 -0.875 C 15.992188 -0.289062 15.148438 0 13.765625 0 C 12.410156 0 11.582031 -0.300781 11.28125 -0.90625 C 11.125 -1.226562 11.03125 -1.515625 11 -1.765625 C 10.96875 -2.015625 10.953125 -2.390625 10.953125 -2.890625 L 10.953125 -8.5625 C 10.953125 -10.4375 10.28125 -11.375 8.9375 -11.375 C 7.644531 -11.375 7 -10.4375 7 -8.5625 L 7 -2.8125 C 7 -2.320312 6.984375 -1.953125 6.953125 -1.703125 C 6.921875 -1.453125 6.816406 -1.164062 6.640625 -0.84375 C 6.316406 -0.28125 5.472656 0 4.109375 0 C 2.753906 0 1.925781 -0.289062 1.625 -0.875 C 1.46875 -1.195312 1.375 -1.476562 1.34375 -1.71875 C 1.3125 -1.957031 1.296875 -2.335938 1.296875 -2.859375 L 1.296875 -14.265625 C 1.296875 -14.753906 1.3125 -15.125 1.34375 -15.375 C 1.375 -15.625 1.476562 -15.898438 1.65625 -16.203125 C 1.976562 -16.785156 2.742188 -17.078125 3.953125 -17.078125 C 5.160156 -17.078125 5.945312 -16.878906 6.3125 -16.484375 C 6.6875 -16.097656 6.875 -15.539062 6.875 -14.8125 Z M 6.875 -14.8125 "/></g></g></g><g fill="#000000" fill-opacity="1"><g transform="translate(106.055253, 32.726411)"><g><path d="M 1.296875 -14.21875 C 1.296875 -14.71875 1.3125 -15.09375 1.34375 -15.34375 C 1.375 -15.59375 1.46875 -15.878906 1.625 -16.203125 C 1.925781 -16.765625 2.765625 -17.046875 4.140625 -17.046875 C 5.179688 -17.046875 5.921875 -16.863281 6.359375 -16.5 C 6.722656 -16.195312 6.914062 -15.726562 6.9375 -15.09375 C 6.957031 -14.882812 6.96875 -14.570312 6.96875 -14.15625 L 6.96875 -2.8125 C 6.96875 -2.320312 6.953125 -1.953125 6.921875 -1.703125 C 6.890625 -1.453125 6.785156 -1.164062 6.609375 -0.84375 C 6.328125 -0.28125 5.492188 0 4.109375 0 C 2.753906 0 1.925781 -0.289062 1.625 -0.875 C 1.46875 -1.195312 1.375 -1.476562 1.34375 -1.71875 C 1.3125 -1.957031 1.296875 -2.335938 1.296875 -2.859375 Z M 6.625 -20.234375 C 6.46875 -19.921875 6.179688 -19.695312 5.765625 -19.5625 C 5.359375 -19.4375 4.8125 -19.375 4.125 -19.375 C 3.445312 -19.375 2.898438 -19.4375 2.484375 -19.5625 C 2.078125 -19.695312 1.789062 -19.925781 1.625 -20.25 C 1.46875 -20.570312 1.375 -20.859375 1.34375 -21.109375 C 1.3125 -21.359375 1.296875 -21.726562 1.296875 -22.21875 C 1.296875 -22.71875 1.3125 -23.09375 1.34375 -23.34375 C 1.375 -23.59375 1.46875 -23.867188 1.625 -24.171875 C 1.925781 -24.753906 2.765625 -25.046875 4.140625 -25.046875 C 5.503906 -25.046875 6.328125 -24.753906 6.609375 -24.171875 C 6.785156 -23.847656 6.890625 -23.5625 6.921875 -23.3125 C 6.953125 -23.0625 6.96875 -22.6875 6.96875 -22.1875 C 6.96875 -21.695312 6.953125 -21.328125 6.921875 -21.078125 C 6.890625 -20.828125 6.789062 -20.546875 6.625 -20.234375 Z M 6.625 -20.234375 "/></g></g></g><g fill="#000000" fill-opacity="1"><g transform="translate(114.314832, 32.726411)"><g><path d="M 6.875 -14.8125 C 7.882812 -16.34375 9.101562 -17.109375 10.53125 -17.109375 C 12.738281 -17.109375 14.378906 -16.171875 15.453125 -14.296875 C 15.691406 -14.617188 15.976562 -14.957031 16.3125 -15.3125 C 16.644531 -15.664062 17.175781 -16.050781 17.90625 -16.46875 C 18.644531 -16.894531 19.40625 -17.109375 20.1875 -17.109375 C 21.914062 -17.109375 23.363281 -16.441406 24.53125 -15.109375 C 25.695312 -13.785156 26.28125 -11.585938 26.28125 -8.515625 L 26.28125 -2.859375 C 26.28125 -2.359375 26.265625 -1.984375 26.234375 -1.734375 C 26.203125 -1.484375 26.097656 -1.195312 25.921875 -0.875 C 25.640625 -0.289062 24.8125 0 23.4375 0 C 22.070312 0 21.238281 -0.300781 20.9375 -0.90625 C 20.78125 -1.226562 20.6875 -1.515625 20.65625 -1.765625 C 20.625 -2.015625 20.609375 -2.390625 20.609375 -2.890625 L 20.609375 -8.5625 C 20.609375 -10.4375 19.9375 -11.375 18.59375 -11.375 C 17.84375 -11.375 17.332031 -11.125 17.0625 -10.625 C 16.789062 -10.132812 16.65625 -9.429688 16.65625 -8.515625 L 16.65625 -2.859375 C 16.65625 -2.335938 16.640625 -1.957031 16.609375 -1.71875 C 16.578125 -1.476562 16.472656 -1.195312 16.296875 -0.875 C 15.992188 -0.289062 15.148438 0 13.765625 0 C 12.410156 0 11.582031 -0.300781 11.28125 -0.90625 C 11.125 -1.226562 11.03125 -1.515625 11 -1.765625 C 10.96875 -2.015625 10.953125 -2.390625 10.953125 -2.890625 L 10.953125 -8.5625 C 10.953125 -10.4375 10.28125 -11.375 8.9375 -11.375 C 7.644531 -11.375 7 -10.4375 7 -8.5625 L 7 -2.8125 C 7 -2.320312 6.984375 -1.953125 6.953125 -1.703125 C 6.921875 -1.453125 6.816406 -1.164062 6.640625 -0.84375 C 6.316406 -0.28125 5.472656 0 4.109375 0 C 2.753906 0 1.925781 -0.289062 1.625 -0.875 C 1.46875 -1.195312 1.375 -1.476562 1.34375 -1.71875 C 1.3125 -1.957031 1.296875 -2.335938 1.296875 -2.859375 L 1.296875 -14.265625 C 1.296875 -14.753906 1.3125 -15.125 1.34375 -15.375 C 1.375 -15.625 1.476562 -15.898438 1.65625 -16.203125 C 1.976562 -16.785156 2.742188 -17.078125 3.953125 -17.078125 C 5.160156 -17.078125 5.945312 -16.878906 6.3125 -16.484375 C 6.6875 -16.097656 6.875 -15.539062 6.875 -14.8125 Z M 6.875 -14.8125 "/></g></g></g><g fill="#000000" fill-opacity="1"><g transform="translate(141.879149, 32.726411)"><g><path d="M 0.8125 -8.515625 C 0.8125 -11.109375 1.71875 -13.25 3.53125 -14.9375 C 5.34375 -16.625 7.414062 -17.46875 9.75 -17.46875 C 12.082031 -17.46875 14.144531 -16.628906 15.9375 -14.953125 C 17.738281 -13.273438 18.640625 -11.144531 18.640625 -8.5625 C 18.640625 -6.757812 18.171875 -5.160156 17.234375 -3.765625 C 16.304688 -2.378906 15.175781 -1.351562 13.84375 -0.6875 C 12.519531 -0.03125 11.144531 0.296875 9.71875 0.296875 C 8.289062 0.296875 6.90625 -0.0507812 5.5625 -0.75 C 4.226562 -1.457031 3.101562 -2.5 2.1875 -3.875 C 1.269531 -5.25 0.8125 -6.796875 0.8125 -8.515625 Z M 7.578125 -6.203125 C 8.273438 -5.671875 8.976562 -5.40625 9.6875 -5.40625 C 10.40625 -5.40625 11.117188 -5.675781 11.828125 -6.21875 C 12.535156 -6.757812 12.890625 -7.554688 12.890625 -8.609375 C 12.890625 -9.671875 12.554688 -10.460938 11.890625 -10.984375 C 11.222656 -11.503906 10.5 -11.765625 9.71875 -11.765625 C 8.945312 -11.765625 8.222656 -11.492188 7.546875 -10.953125 C 6.878906 -10.410156 6.546875 -9.613281 6.546875 -8.5625 C 6.546875 -7.519531 6.890625 -6.734375 7.578125 -6.203125 Z M 7.578125 -6.203125 "/></g></g></g><g fill="#000000" fill-opacity="1"><g transform="translate(161.313453, 32.726411)"><g><path d="M 1.421875 -1.515625 C 1.015625 -1.773438 0.8125 -2.1875 0.8125 -2.75 C 0.8125 -3.3125 1.222656 -4.164062 2.046875 -5.3125 C 2.273438 -5.675781 2.65625 -5.859375 3.1875 -5.859375 C 3.71875 -5.859375 4.4375 -5.59375 5.34375 -5.0625 C 6.25 -4.539062 7.070312 -4.28125 7.8125 -4.28125 C 9.125 -4.28125 9.78125 -4.539062 9.78125 -5.0625 C 9.78125 -5.46875 9.054688 -5.769531 7.609375 -5.96875 C 6.253906 -6.15625 4.90625 -6.660156 3.5625 -7.484375 C 2.9375 -7.867188 2.414062 -8.476562 2 -9.3125 C 1.59375 -10.144531 1.390625 -11.132812 1.390625 -12.28125 C 1.390625 -15.695312 3.734375 -17.40625 8.421875 -17.40625 C 9.953125 -17.40625 11.53125 -17.035156 13.15625 -16.296875 C 13.914062 -15.953125 14.296875 -15.519531 14.296875 -15 C 14.296875 -14.476562 14.054688 -13.835938 13.578125 -13.078125 C 13.097656 -12.328125 12.613281 -11.953125 12.125 -11.953125 C 11.863281 -11.953125 11.378906 -12.113281 10.671875 -12.4375 C 9.972656 -12.769531 9.210938 -12.9375 8.390625 -12.9375 C 7.117188 -12.9375 6.484375 -12.695312 6.484375 -12.21875 C 6.484375 -11.570312 7.21875 -11.148438 8.6875 -10.953125 C 10.113281 -10.796875 11.492188 -10.382812 12.828125 -9.71875 C 13.453125 -9.414062 13.972656 -8.890625 14.390625 -8.140625 C 14.816406 -7.398438 15.03125 -6.46875 15.03125 -5.34375 C 15.03125 -4.21875 14.816406 -3.257812 14.390625 -2.46875 C 13.972656 -1.6875 13.390625 -1.101562 12.640625 -0.71875 C 11.253906 -0.0390625 9.519531 0.296875 7.4375 0.296875 C 5.351562 0.296875 3.347656 -0.304688 1.421875 -1.515625 Z M 1.421875 -1.515625 "/></g></g></g><g fill="#000000" fill-opacity="1"><g transform="translate(177.152409, 32.726411)"><g/></g></g><g fill="#000000" fill-opacity="1"><g transform="translate(185.347197, 32.726411)"><g><path d="M 11.21875 -11.34375 L 9.109375 -11.46875 L 9.109375 -7 C 9.109375 -6.414062 9.195312 -5.992188 9.375 -5.734375 C 9.5625 -5.472656 9.910156 -5.34375 10.421875 -5.34375 C 10.929688 -5.34375 11.316406 -5.328125 11.578125 -5.296875 C 11.847656 -5.265625 12.132812 -5.160156 12.4375 -4.984375 C 12.9375 -4.703125 13.1875 -3.976562 13.1875 -2.8125 C 13.1875 -1.457031 12.882812 -0.628906 12.28125 -0.328125 C 11.957031 -0.171875 11.671875 -0.078125 11.421875 -0.046875 C 11.171875 -0.015625 10.8125 0 10.34375 0 C 8.09375 0 6.382812 -0.503906 5.21875 -1.515625 C 4.050781 -2.535156 3.46875 -4.253906 3.46875 -6.671875 L 3.46875 -11.46875 C 3.0625 -11.40625 2.617188 -11.375 2.140625 -11.375 C 1.660156 -11.375 1.265625 -11.554688 0.953125 -11.921875 C 0.640625 -12.285156 0.484375 -12.910156 0.484375 -13.796875 C 0.484375 -14.691406 0.535156 -15.335938 0.640625 -15.734375 C 0.753906 -16.128906 0.910156 -16.414062 1.109375 -16.59375 C 1.453125 -16.875 1.878906 -17.015625 2.390625 -17.015625 L 3.46875 -16.890625 L 3.46875 -20.21875 C 3.46875 -20.71875 3.484375 -21.085938 3.515625 -21.328125 C 3.546875 -21.566406 3.648438 -21.820312 3.828125 -22.09375 C 4.109375 -22.632812 4.9375 -22.90625 6.3125 -22.90625 C 7.78125 -22.90625 8.65625 -22.507812 8.9375 -21.71875 C 9.050781 -21.363281 9.109375 -20.8125 9.109375 -20.0625 L 9.109375 -16.890625 C 10.054688 -16.972656 10.769531 -17.015625 11.25 -17.015625 C 11.738281 -17.015625 12.109375 -17 12.359375 -16.96875 C 12.609375 -16.9375 12.894531 -16.832031 13.21875 -16.65625 C 13.78125 -16.375 14.0625 -15.539062 14.0625 -14.15625 C 14.0625 -12.800781 13.769531 -11.972656 13.1875 -11.671875 C 12.863281 -11.515625 12.578125 -11.421875 12.328125 -11.390625 C 12.078125 -11.359375 11.707031 -11.34375 11.21875 -11.34375 Z M 11.21875 -11.34375 "/></g></g></g><g fill="#000000" fill-opacity="1"><g transform="translate(199.890526, 32.726411)"><g><path d="M 8.875 -0.0625 C 6.695312 -0.0625 4.890625 -0.882812 3.453125 -2.53125 C 2.015625 -4.1875 1.296875 -6.207031 1.296875 -8.59375 L 1.296875 -14.265625 C 1.296875 -14.773438 1.3125 -15.148438 1.34375 -15.390625 C 1.375 -15.628906 1.46875 -15.910156 1.625 -16.234375 C 1.925781 -16.816406 2.765625 -17.109375 4.140625 -17.109375 C 5.660156 -17.109375 6.550781 -16.695312 6.8125 -15.875 C 6.9375 -15.53125 7 -14.976562 7 -14.21875 L 7 -8.5625 C 7 -7.675781 7.25 -6.984375 7.75 -6.484375 C 8.257812 -5.984375 8.941406 -5.734375 9.796875 -5.734375 C 10.648438 -5.734375 11.34375 -5.992188 11.875 -6.515625 C 12.40625 -7.035156 12.671875 -7.71875 12.671875 -8.5625 L 12.671875 -14.296875 C 12.671875 -14.785156 12.6875 -15.15625 12.71875 -15.40625 C 12.75 -15.65625 12.851562 -15.941406 13.03125 -16.265625 C 13.3125 -16.828125 14.140625 -17.109375 15.515625 -17.109375 C 16.878906 -17.109375 17.710938 -16.816406 18.015625 -16.234375 C 18.171875 -15.910156 18.265625 -15.625 18.296875 -15.375 C 18.328125 -15.125 18.34375 -14.753906 18.34375 -14.265625 L 18.34375 -2.78125 C 18.34375 -2.3125 18.328125 -1.953125 18.296875 -1.703125 C 18.265625 -1.453125 18.160156 -1.175781 17.984375 -0.875 C 17.660156 -0.3125 16.828125 -0.03125 15.484375 -0.03125 C 14.171875 -0.03125 13.363281 -0.289062 13.0625 -0.8125 C 12.84375 -1.175781 12.734375 -1.617188 12.734375 -2.140625 C 12.648438 -1.984375 12.457031 -1.765625 12.15625 -1.484375 C 11.851562 -1.203125 11.5625 -0.96875 11.28125 -0.78125 C 10.539062 -0.300781 9.738281 -0.0625 8.875 -0.0625 Z M 8.875 -0.0625 "/></g></g></g><g fill="#000000" fill-opacity="1"><g transform="translate(219.519171, 32.726411)"><g><path d="M 1.421875 -1.515625 C 1.015625 -1.773438 0.8125 -2.1875 0.8125 -2.75 C 0.8125 -3.3125 1.222656 -4.164062 2.046875 -5.3125 C 2.273438 -5.675781 2.65625 -5.859375 3.1875 -5.859375 C 3.71875 -5.859375 4.4375 -5.59375 5.34375 -5.0625 C 6.25 -4.539062 7.070312 -4.28125 7.8125 -4.28125 C 9.125 -4.28125 9.78125 -4.539062 9.78125 -5.0625 C 9.78125 -5.46875 9.054688 -5.769531 7.609375 -5.96875 C 6.253906 -6.15625 4.90625 -6.660156 3.5625 -7.484375 C 2.9375 -7.867188 2.414062 -8.476562 2 -9.3125 C 1.59375 -10.144531 1.390625 -11.132812 1.390625 -12.28125 C 1.390625 -15.695312 3.734375 -17.40625 8.421875 -17.40625 C 9.953125 -17.40625 11.53125 -17.035156 13.15625 -16.296875 C 13.914062 -15.953125 14.296875 -15.519531 14.296875 -15 C 14.296875 -14.476562 14.054688 -13.835938 13.578125 -13.078125 C 13.097656 -12.328125 12.613281 -11.953125 12.125 -11.953125 C 11.863281 -11.953125 11.378906 -12.113281 10.671875 -12.4375 C 9.972656 -12.769531 9.210938 -12.9375 8.390625 -12.9375 C 7.117188 -12.9375 6.484375 -12.695312 6.484375 -12.21875 C 6.484375 -11.570312 7.21875 -11.148438 8.6875 -10.953125 C 10.113281 -10.796875 11.492188 -10.382812 12.828125 -9.71875 C 13.453125 -9.414062 13.972656 -8.890625 14.390625 -8.140625 C 14.816406 -7.398438 15.03125 -6.46875 15.03125 -5.34375 C 15.03125 -4.21875 14.816406 -3.257812 14.390625 -2.46875 C 13.972656 -1.6875 13.390625 -1.101562 12.640625 -0.71875 C 11.253906 -0.0390625 9.519531 0.296875 7.4375 0.296875 C 5.351562 0.296875 3.347656 -0.304688 1.421875 -1.515625 Z M 1.421875 -1.515625 "/></g></g></g><g fill="#000000" fill-opacity="1"><g transform="translate(235.358127, 32.726411)"><g/></g></g><g fill="#000000" fill-opacity="1"><g transform="translate(243.552915, 32.726411)"><g><path d="M 1.296875 -14.21875 C 1.296875 -14.71875 1.3125 -15.09375 1.34375 -15.34375 C 1.375 -15.59375 1.46875 -15.878906 1.625 -16.203125 C 1.925781 -16.765625 2.765625 -17.046875 4.140625 -17.046875 C 5.179688 -17.046875 5.921875 -16.863281 6.359375 -16.5 C 6.722656 -16.195312 6.914062 -15.726562 6.9375 -15.09375 C 6.957031 -14.882812 6.96875 -14.570312 6.96875 -14.15625 L 6.96875 -2.8125 C 6.96875 -2.320312 6.953125 -1.953125 6.921875 -1.703125 C 6.890625 -1.453125 6.785156 -1.164062 6.609375 -0.84375 C 6.328125 -0.28125 5.492188 0 4.109375 0 C 2.753906 0 1.925781 -0.289062 1.625 -0.875 C 1.46875 -1.195312 1.375 -1.476562 1.34375 -1.71875 C 1.3125 -1.957031 1.296875 -2.335938 1.296875 -2.859375 Z M 6.625 -20.234375 C 6.46875 -19.921875 6.179688 -19.695312 5.765625 -19.5625 C 5.359375 -19.4375 4.8125 -19.375 4.125 -19.375 C 3.445312 -19.375 2.898438 -19.4375 2.484375 -19.5625 C 2.078125 -19.695312 1.789062 -19.925781 1.625 -20.25 C 1.46875 -20.570312 1.375 -20.859375 1.34375 -21.109375 C 1.3125 -21.359375 1.296875 -21.726562 1.296875 -22.21875 C 1.296875 -22.71875 1.3125 -23.09375 1.34375 -23.34375 C 1.375 -23.59375 1.46875 -23.867188 1.625 -24.171875 C 1.925781 -24.753906 2.765625 -25.046875 4.140625 -25.046875 C 5.503906 -25.046875 6.328125 -24.753906 6.609375 -24.171875 C 6.785156 -23.847656 6.890625 -23.5625 6.921875 -23.3125 C 6.953125 -23.0625 6.96875 -22.6875 6.96875 -22.1875 C 6.96875 -21.695312 6.953125 -21.328125 6.921875 -21.078125 C 6.890625 -20.828125 6.789062 -20.546875 6.625 -20.234375 Z M 6.625 -20.234375 "/></g></g></g><g fill="#000000" fill-opacity="1"><g transform="translate(251.812494, 32.726411)"><g><path d="M 12.75 -24.1875 C 12.914062 -24.5 13.203125 -24.71875 13.609375 -24.84375 C 14.015625 -24.976562 14.554688 -25.046875 15.234375 -25.046875 C 15.921875 -25.046875 16.46875 -24.976562 16.875 -24.84375 C 17.289062 -24.71875 17.578125 -24.492188 17.734375 -24.171875 C 17.898438 -23.847656 18 -23.5625 18.03125 -23.3125 C 18.0625 -23.0625 18.078125 -22.691406 18.078125 -22.203125 L 18.078125 -2.859375 C 18.078125 -2.359375 18.0625 -1.984375 18.03125 -1.734375 C 18 -1.484375 17.894531 -1.207031 17.71875 -0.90625 C 17.394531 -0.320312 16.484375 -0.03125 14.984375 -0.03125 C 13.484375 -0.03125 12.644531 -0.5625 12.46875 -1.625 C 11.5625 -0.582031 10.300781 -0.0625 8.6875 -0.0625 C 6.738281 -0.0625 4.960938 -0.910156 3.359375 -2.609375 C 1.765625 -4.304688 0.96875 -6.28125 0.96875 -8.53125 C 0.96875 -10.789062 1.769531 -12.773438 3.375 -14.484375 C 4.988281 -16.191406 6.757812 -17.046875 8.6875 -17.046875 C 10.28125 -17.046875 11.519531 -16.503906 12.40625 -15.421875 L 12.40625 -22.234375 C 12.40625 -22.722656 12.421875 -23.09375 12.453125 -23.34375 C 12.492188 -23.59375 12.59375 -23.875 12.75 -24.1875 Z M 7.484375 -6.578125 C 8.046875 -5.992188 8.722656 -5.703125 9.515625 -5.703125 C 10.316406 -5.703125 10.984375 -5.992188 11.515625 -6.578125 C 12.046875 -7.160156 12.3125 -7.800781 12.3125 -8.5 C 12.3125 -9.207031 12.054688 -9.863281 11.546875 -10.46875 C 11.046875 -11.070312 10.363281 -11.375 9.5 -11.375 C 8.632812 -11.375 7.941406 -11.078125 7.421875 -10.484375 C 6.898438 -9.890625 6.640625 -9.234375 6.640625 -8.515625 C 6.640625 -7.804688 6.921875 -7.160156 7.484375 -6.578125 Z M 7.484375 -6.578125 "/></g></g></g><g fill="#000000" fill-opacity="1"><g transform="translate(271.182023, 32.726411)"><g><path d="M 17.765625 -10.578125 C 17.765625 -9.253906 17.429688 -8.269531 16.765625 -7.625 C 16.109375 -6.988281 15.378906 -6.671875 14.578125 -6.671875 L 6.90625 -6.671875 C 6.90625 -6.066406 7.257812 -5.554688 7.96875 -5.140625 C 8.6875 -4.734375 9.398438 -4.53125 10.109375 -4.53125 C 11.359375 -4.53125 12.34375 -4.660156 13.0625 -4.921875 L 13.421875 -5.0625 C 13.929688 -5.289062 14.363281 -5.40625 14.71875 -5.40625 C 15.40625 -5.40625 16 -4.921875 16.5 -3.953125 C 16.78125 -3.367188 16.921875 -2.875 16.921875 -2.46875 C 16.921875 -0.539062 14.617188 0.421875 10.015625 0.421875 C 8.410156 0.421875 6.988281 0.144531 5.75 -0.40625 C 4.507812 -0.957031 3.546875 -1.6875 2.859375 -2.59375 C 1.492188 -4.34375 0.8125 -6.296875 0.8125 -8.453125 C 0.8125 -11.179688 1.691406 -13.359375 3.453125 -14.984375 C 5.210938 -16.617188 7.410156 -17.4375 10.046875 -17.4375 C 13.046875 -17.4375 15.25 -16.378906 16.65625 -14.265625 C 17.394531 -13.140625 17.765625 -11.910156 17.765625 -10.578125 Z M 10.921875 -9.625 C 11.742188 -9.625 12.15625 -9.96875 12.15625 -10.65625 C 12.15625 -11.15625 11.960938 -11.554688 11.578125 -11.859375 C 11.203125 -12.160156 10.660156 -12.3125 9.953125 -12.3125 C 9.253906 -12.3125 8.5625 -12.023438 7.875 -11.453125 C 7.1875 -10.878906 6.84375 -10.269531 6.84375 -9.625 Z M 10.921875 -9.625 "/></g></g></g><g fill="#000000" fill-opacity="1"><g transform="translate(289.741769, 32.726411)"><g><path d="M 12.375 -15.265625 C 12.507812 -16.472656 13.363281 -17.078125 14.9375 -17.078125 C 15.78125 -17.078125 16.40625 -17.007812 16.8125 -16.875 C 17.226562 -16.75 17.515625 -16.523438 17.671875 -16.203125 C 17.835938 -15.878906 17.9375 -15.59375 17.96875 -15.34375 C 18 -15.09375 18.015625 -14.71875 18.015625 -14.21875 L 18.015625 -2.890625 C 18.015625 -2.390625 18 -2.015625 17.96875 -1.765625 C 17.9375 -1.515625 17.84375 -1.226562 17.6875 -0.90625 C 17.382812 -0.34375 16.644531 -0.0625 15.46875 -0.0625 C 14.289062 -0.0625 13.503906 -0.207031 13.109375 -0.5 C 12.710938 -0.789062 12.476562 -1.21875 12.40625 -1.78125 C 11.613281 -0.632812 10.28125 -0.0625 8.40625 -0.0625 C 6.539062 -0.0625 4.804688 -0.914062 3.203125 -2.625 C 1.609375 -4.332031 0.8125 -6.3125 0.8125 -8.5625 C 0.8125 -10.820312 1.613281 -12.800781 3.21875 -14.5 C 4.832031 -16.195312 6.597656 -17.046875 8.515625 -17.046875 C 9.253906 -17.046875 9.925781 -16.914062 10.53125 -16.65625 C 11.132812 -16.394531 11.554688 -16.148438 11.796875 -15.921875 C 12.035156 -15.703125 12.226562 -15.484375 12.375 -15.265625 Z M 6.484375 -8.515625 C 6.484375 -7.804688 6.765625 -7.164062 7.328125 -6.59375 C 7.890625 -6.019531 8.566406 -5.734375 9.359375 -5.734375 C 10.160156 -5.734375 10.828125 -6.023438 11.359375 -6.609375 C 11.890625 -7.191406 12.15625 -7.832031 12.15625 -8.53125 C 12.15625 -9.238281 11.898438 -9.894531 11.390625 -10.5 C 10.878906 -11.101562 10.195312 -11.40625 9.34375 -11.40625 C 8.488281 -11.40625 7.796875 -11.101562 7.265625 -10.5 C 6.742188 -9.894531 6.484375 -9.234375 6.484375 -8.515625 Z M 6.484375 -8.515625 "/></g></g></g><g fill="#000000" fill-opacity="1"><g transform="translate(309.046507, 32.726411)"><g><path d="M 1.421875 -1.515625 C 1.015625 -1.773438 0.8125 -2.1875 0.8125 -2.75 C 0.8125 -3.3125 1.222656 -4.164062 2.046875 -5.3125 C 2.273438 -5.675781 2.65625 -5.859375 3.1875 -5.859375 C 3.71875 -5.859375 4.4375 -5.59375 5.34375 -5.0625 C 6.25 -4.539062 7.070312 -4.28125 7.8125 -4.28125 C 9.125 -4.28125 9.78125 -4.539062 9.78125 -5.0625 C 9.78125 -5.46875 9.054688 -5.769531 7.609375 -5.96875 C 6.253906 -6.15625 4.90625 -6.660156 3.5625 -7.484375 C 2.9375 -7.867188 2.414062 -8.476562 2 -9.3125 C 1.59375 -10.144531 1.390625 -11.132812 1.390625 -12.28125 C 1.390625 -15.695312 3.734375 -17.40625 8.421875 -17.40625 C 9.953125 -17.40625 11.53125 -17.035156 13.15625 -16.296875 C 13.914062 -15.953125 14.296875 -15.519531 14.296875 -15 C 14.296875 -14.476562 14.054688 -13.835938 13.578125 -13.078125 C 13.097656 -12.328125 12.613281 -11.953125 12.125 -11.953125 C 11.863281 -11.953125 11.378906 -12.113281 10.671875 -12.4375 C 9.972656 -12.769531 9.210938 -12.9375 8.390625 -12.9375 C 7.117188 -12.9375 6.484375 -12.695312 6.484375 -12.21875 C 6.484375 -11.570312 7.21875 -11.148438 8.6875 -10.953125 C 10.113281 -10.796875 11.492188 -10.382812 12.828125 -9.71875 C 13.453125 -9.414062 13.972656 -8.890625 14.390625 -8.140625 C 14.816406 -7.398438 15.03125 -6.46875 15.03125 -5.34375 C 15.03125 -4.21875 14.816406 -3.257812 14.390625 -2.46875 C 13.972656 -1.6875 13.390625 -1.101562 12.640625 -0.71875 C 11.253906 -0.0390625 9.519531 0.296875 7.4375 0.296875 C 5.351562 0.296875 3.347656 -0.304688 1.421875 -1.515625 Z M 1.421875 -1.515625 "/></g></g></g></g></g></svg>