<svg xmlns="http://www.w3.org/2000/svg" xmlns:xlink="http://www.w3.org/1999/xlink" width="1116" height="400" viewBox="0 0 837 299.999988" preserveAspectRatio="xMidYMid meet" version="1.0"><defs><g/><clipPath id="e6503058f6"><path d="M 28 99.875 L 153 99.875 L 153 130 L 28 130 Z M 28 99.875 " clip-rule="nonzero"/></clipPath><clipPath id="7767f128fe"><path d="M 8 217 L 174 217 L 174 241.625 L 8 241.625 Z M 8 217 " clip-rule="nonzero"/></clipPath></defs><g clip-path="url(#e6503058f6)"><path fill="#f2f6fc" d="M 31.84375 105.804688 L 67.199219 105.804688 C 67.199219 105.804688 67.199219 126.429688 67.199219 126.429688 C 67.199219 128.050781 68.527344 129.375 70.144531 129.375 L 111.394531 129.375 C 113.015625 129.375 114.339844 128.050781 114.339844 126.429688 L 114.339844 105.804688 L 149.695312 105.804688 C 151.316406 105.804688 152.640625 104.476562 152.640625 102.859375 C 152.640625 101.238281 151.316406 99.910156 149.695312 99.910156 L 31.84375 99.910156 C 28.015625 99.976562 27.941406 105.722656 31.84375 105.804688 Z M 31.84375 105.804688 " fill-opacity="1" fill-rule="nonzero"/></g><g clip-path="url(#7767f128fe)"><path fill="#f2f6fc" d="M 161.480469 217.773438 L 20.058594 217.773438 C 13.726562 217.648438 8.148438 223.222656 8.273438 229.558594 C 8.273438 236.070312 13.546875 241.347656 20.058594 241.347656 L 161.480469 241.347656 C 164.632812 241.347656 167.578125 240.109375 169.816406 237.898438 C 177.195312 230.765625 171.808594 217.570312 161.480469 217.773438 Z M 161.480469 217.773438 " fill-opacity="1" fill-rule="nonzero"/></g><path fill="#f2f6fc" d="M 161.480469 200.09375 L 20.058594 200.09375 C 16.90625 200.09375 13.960938 201.332031 11.722656 203.542969 C 8.5625 206.667969 7.386719 211.644531 8.980469 215.800781 C 12.164062 213.234375 16.023438 211.878906 20.058594 211.878906 L 161.480469 211.878906 C 165.691406 211.878906 169.550781 213.355469 172.585938 215.800781 C 175.355469 208.347656 169.472656 199.941406 161.480469 200.09375 Z M 161.480469 200.09375 " fill-opacity="1" fill-rule="nonzero"/><path fill="#f2f6fc" d="M 93.714844 173.574219 L 93.714844 162.863281 L 107.769531 145.996094 C 107.886719 145.847656 107.945312 145.671875 108.035156 145.523438 C 108.316406 145.128906 108.4375 144.628906 108.445312 144.109375 C 108.445312 144.109375 108.445312 135.269531 108.445312 135.269531 L 73.09375 135.269531 C 73.234375 136.710938 72.707031 144.957031 73.503906 145.523438 C 73.59375 145.671875 73.652344 145.847656 73.769531 145.996094 L 87.824219 162.863281 C 87.824219 162.863281 87.824219 173.574219 87.824219 173.574219 C 87.824219 181.707031 94.421875 188.308594 102.554688 188.308594 L 161.480469 188.308594 C 164.71875 188.308594 167.371094 190.960938 167.371094 194.203125 C 167.371094 194.554688 167.34375 194.878906 167.285156 195.203125 C 169.226562 195.851562 171.023438 196.851562 172.585938 198.121094 C 173.027344 196.882812 173.265625 195.585938 173.265625 194.203125 C 173.265625 187.6875 167.992188 182.414062 161.480469 182.414062 L 102.554688 182.414062 C 97.691406 182.414062 93.714844 178.4375 93.714844 173.574219 Z M 93.714844 173.574219 " fill-opacity="1" fill-rule="nonzero"/><path fill="#2db7fa" fill-opacity="1" d="M193.984325 192.260025Q190.699875 192.260025 189.2944125 191.2777125Q187.88895 190.2954 187.5816625 188.70858750000002Q187.274375 187.121775 187.274375 185.45940000000002V142.65072500000002Q187.274375 140.998425 187.5917375 139.4519125Q187.9091 137.90540000000001 189.31959999999998 136.91805Q190.7301 135.9307 194.064925 135.9307H210.366275Q213.56005 135.9307 217.06111249999998 137.169925Q220.562175 138.40915 223.624975 140.9530875Q226.687775 143.497025 228.59698749999998 147.28522500000003Q230.50619999999998 151.07342500000001 230.50619999999998 156.24190000000002Q230.50619999999998 161.33985 228.59698749999998 165.12301250000002Q226.687775 168.90617500000002 223.6199375 171.40981250000002Q220.5521 173.91345 217.0510375 175.15267500000002Q213.549975 176.39190000000002 210.285675 176.39190000000002H200.78495V185.54000000000002Q200.78495 187.20237500000002 200.472625 188.74888750000002Q200.1603 190.2954 198.7548375 191.2777125Q197.349375 192.260025 193.984325 192.260025ZM200.78495 162.881325H210.366275Q211.776775 162.881325 213.3232875 162.236525Q214.8698 161.591725 215.97301249999998 160.1056625Q217.076225 158.61960000000002 217.076225 156.151225Q217.076225 154.17652500000003 216.1845875 152.665275Q215.29295 151.15402500000002 213.7766625 150.29765000000003Q212.260375 149.44127500000002 210.285675 149.44127500000002H200.78495Z"/><path fill="#2db7fa" fill-opacity="1" d="M243.1126 192.260025Q239.82815 192.260025 238.4226875 191.2777125Q237.017225 190.2954 236.7099375 188.70858750000002Q236.40265 187.121775 236.40265 185.45940000000002V142.64065000000002Q236.40265 140.98835000000003 236.7200125 139.44687500000003Q237.037375 137.90540000000001 238.4428375 136.91805Q239.8483 135.9307 243.1932 135.9307H259.65575Q262.869675 135.9307 266.3707375 137.16488750000002Q269.8718 138.399075 272.8943 140.92790000000002Q275.91679999999997 143.456725 277.8159375 147.2499625Q279.715075 151.0432 279.715075 156.23182500000001Q279.715075 159.78830000000002 278.6622375 162.982075Q277.6094 166.17585000000003 275.5289125 168.8003875Q273.448425 171.424925 270.45615 173.36436250000003Q267.463875 175.30380000000002 263.574925 176.29115000000002H249.90314999999998V185.54000000000002Q249.90314999999998 187.20237500000002 249.590825 188.74888750000002Q249.2785 190.2954 247.8730375 191.2777125Q246.467575 192.260025 243.1126 192.260025ZM277.014975 190.4969Q273.710375 192.96527500000002 271.7709375 192.4665625Q269.8315 191.96785 267.645225 189.015875L253.137225 168.785275L268.43107499999996 166.8408L278.6169 181.016325Q280.097925 183.17237500000002 280.4958875 184.663475Q280.89385 186.15457500000002 280.06769999999995 187.48447500000003Q279.24154999999996 188.814375 277.014975 190.4969ZM249.90314999999998 162.881325H259.95799999999997Q260.86475 162.881325 261.973 162.5337375Q263.08125 162.18615 264.0232625 161.3851875Q264.965275 160.584225 265.589925 159.30470000000003Q266.21457499999997 158.02517500000002 266.21457499999997 156.151225Q266.21457499999997 154.15637500000003 265.3330125 152.645125Q264.45145 151.13387500000002 262.9402 150.287575Q261.42895 149.44127500000002 259.49455 149.44127500000002H249.90314999999998Z"/><path fill="#2db7fa" fill-opacity="1" d="M292.40207499999997 192.33055000000002Q289.117625 192.33055000000002 287.7121625 191.3482375Q286.3067 190.365925 285.99941249999995 188.7791125Q285.692125 187.19230000000002 285.692125 185.52992500000002V142.65072500000002Q285.692125 140.98835000000003 286.00445 139.44183750000002Q286.316775 137.895325 287.7222375 136.9130125Q289.1277 135.9307 292.482675 135.9307Q295.83765 135.9307 297.20785 136.9130125Q298.57804999999996 137.895325 298.8853375 139.44183750000002Q299.19262499999996 140.98835000000003 299.19262499999996 142.73132500000003V185.610525Q299.19262499999996 187.27290000000002 298.8803 188.8194125Q298.567975 190.365925 297.1625125 191.3482375Q295.75705 192.33055000000002 292.40207499999997 192.33055000000002Z"/><path fill="#2db7fa" fill-opacity="1" d="M312.28262499999994 192.32047500000002Q309.08885 192.32047500000002 307.68842499999994 191.333125Q306.28799999999995 190.345775 305.97063749999995 188.794225Q305.65327499999995 187.24267500000002 305.65327499999995 185.51985000000002V142.469375Q305.65327499999995 140.82715000000002 305.97567499999997 139.36123750000002Q306.298075 137.895325 307.748875 136.94827500000002Q309.19967499999996 136.001225 312.47405 136.001225Q315.72827499999994 136.001225 316.92719999999997 136.79211250000003Q318.12612499999994 137.58300000000003 319.11347499999994 138.862525L340.95607499999994 168.5737V142.469375Q340.95607499999994 140.82715000000002 341.30869999999993 139.36123750000002Q341.661325 137.895325 343.071825 136.94827500000002Q344.48232499999995 136.001225 347.75669999999997 136.001225Q351.09152499999993 136.001225 352.46172499999994 136.98857500000003Q353.83192499999996 137.97592500000002 354.14424999999994 139.527475Q354.45657499999993 141.079025 354.45657499999993 142.80185V185.60045Q354.45657499999993 187.25275000000002 354.12913749999996 188.7992625Q353.8017 190.345775 352.381125 191.333125Q350.96054999999996 192.32047500000002 347.61564999999996 192.32047500000002Q345.11704999999995 192.32047500000002 343.8022625 191.9023625Q342.48747499999996 191.48425 341.560575 190.2551L319.08324999999996 160.1913V185.60045Q319.08324999999996 187.25275000000002 318.76588749999996 188.7992625Q318.44852499999996 190.345775 317.03802499999995 191.333125Q315.62752499999993 192.32047500000002 312.28262499999994 192.32047500000002Z"/><path fill="#2db7fa" fill-opacity="1" d="M403.14154999999994 135.86017500000003Q404.5923499999999 135.86017500000003 405.8517249999999 136.10197500000004Q407.1110999999999 136.34377500000002 407.9473249999999 137.5376625Q408.78354999999993 138.73155000000003 408.78354999999993 141.60292500000003Q408.78354999999993 144.39370000000002 407.9422874999999 145.62285000000003Q407.10102499999994 146.852 405.80134999999996 147.08876250000003Q404.5016749999999 147.32552500000003 403.0508749999999 147.32552500000003H391.00117499999993V185.751575Q391.00117499999993 187.41395 390.6888499999999 188.92520000000002Q390.3765249999999 190.43645 389.00632499999995 191.38350000000003Q387.63612499999994 192.33055000000002 384.2811499999999 192.33055000000002Q381.06722499999995 192.33055000000002 379.66176249999995 191.3482375Q378.25629999999995 190.365925 377.9842749999999 188.8496375Q377.7122499999999 187.33335 377.7122499999999 185.670975V147.32552500000003H365.56179999999995Q364.1815249999999 147.32552500000003 362.88184999999993 147.0535Q361.58217499999995 146.781475 360.7409124999999 145.5875875Q359.89964999999995 144.39370000000002 359.89964999999995 141.53240000000002Q359.89964999999995 138.73155000000003 360.73587499999996 137.5376625Q361.5720999999999 136.34377500000002 362.9070374999999 136.10197500000004Q364.2419749999999 135.86017500000003 365.6121749999999 135.86017500000003Z"/><path fill="#2db7fa" fill-opacity="1" d="M420.7350749999999 192.33055000000002Q417.4506249999999 192.33055000000002 416.0451624999999 191.3482375Q414.6396999999999 190.365925 414.3324124999999 188.7791125Q414.0251249999999 187.19230000000002 414.0251249999999 185.52992500000002V142.65072500000002Q414.0251249999999 140.98835000000003 414.3374499999999 139.44183750000002Q414.6497749999999 137.895325 416.0552374999999 136.9130125Q417.4606999999999 135.9307 420.8156749999999 135.9307Q424.1706499999999 135.9307 425.54084999999986 136.9130125Q426.9110499999999 137.895325 427.21833749999985 139.44183750000002Q427.5256249999999 140.98835000000003 427.5256249999999 142.73132500000003V185.610525Q427.5256249999999 187.27290000000002 427.2132999999999 188.8194125Q426.9009749999999 190.365925 425.4955124999999 191.3482375Q424.0900499999999 192.33055000000002 420.7350749999999 192.33055000000002Z"/><path fill="#2db7fa" fill-opacity="1" d="M441.56267499999984 192.33055000000002Q438.27822499999985 192.33055000000002 436.87276249999985 191.3482375Q435.46729999999985 190.365925 435.1600124999999 188.78415Q434.85272499999985 187.20237500000002 434.85272499999985 185.54000000000002V142.64065000000002Q434.85272499999985 140.978275 435.16504999999984 139.4317625Q435.4773749999999 137.88525 436.8828374999999 136.90797500000002Q438.2882999999999 135.9307 441.64327499999985 135.9307Q444.99824999999987 135.9307 446.3684499999999 136.9130125Q447.7386499999999 137.895325 448.0509749999999 139.44183750000002Q448.36329999999987 140.98835000000003 448.36329999999987 142.72125V155.23440000000002L464.0097749999999 138.20765Q465.72252499999985 136.36392500000002 467.1985124999999 135.63852500000002Q468.67449999999985 134.913125 470.22101249999986 135.36650000000003Q471.76752499999986 135.81987500000002 473.60117499999984 137.593075Q476.61359999999985 140.33347500000002 476.67404999999985 142.39885Q476.73449999999985 144.464225 474.20567499999987 147.11395000000002L457.0378749999999 164.181L474.3265749999999 181.08685Q477.06697499999984 183.80710000000002 476.9007374999999 185.97826250000003Q476.73449999999985 188.149425 473.72207499999985 190.67825000000002Q471.5357999999999 192.45145 469.9892874999999 192.90482500000002Q468.44277499999987 193.3582 467.10783749999985 192.59753750000002Q465.7728999999999 191.83687500000002 464.1306749999999 189.922625L448.36329999999987 172.85557500000002V185.6206Q448.36329999999987 187.28297500000002 448.0509749999999 188.82948750000003Q447.7386499999999 190.376 446.3331874999999 191.353275Q444.9277249999999 192.33055000000002 441.56267499999984 192.33055000000002Z"/><path fill="#2db7fa" fill-opacity="1" d="M535.7967249999998 182.94065Q536.9049749999998 185.147075 536.9805374999999 186.7036625Q537.0560999999999 188.26025 536.0234125 189.44406250000003Q534.9907249999999 190.62787500000002 532.7036999999999 191.80665000000002Q529.1572999999999 193.49925000000002 527.2279374999998 192.844375Q525.2985749999999 192.1895 523.6059749999998 188.592725L508.83602499999984 158.06547500000002L494.2171999999999 188.6431Q492.4540749999999 192.1089 490.52471249999985 192.7587375Q488.5953499999999 193.408575 485.1093999999999 191.72605000000001Q482.82237499999985 190.62787500000002 481.75946249999987 189.4339875Q480.6965499999999 188.2401 480.78722499999986 186.658325Q480.87789999999984 185.07655 481.99622499999987 182.829825L502.7104249999999 139.849875Q503.59702499999986 138.07667500000002 505.3299249999999 137.0036875Q507.06282499999986 135.9307 508.91662499999984 135.9307Q510.24652499999985 135.9307 511.39003749999983 136.4092625Q512.5335499999999 136.88782500000002 513.4906749999999 137.774425Q514.4477999999999 138.66102500000002 515.0422249999999 139.930475ZM495.69822499999987 179.908075 501.25962499999986 168.40242500000002H516.5030999999999L522.0544249999998 179.908075Z"/><path fill="#2db7fa" fill-opacity="1" d="M603.4353499999999 135.86017500000003Q604.8861499999998 135.86017500000003 606.1455249999999 136.10197500000004Q607.4048999999999 136.34377500000002 608.2411249999998 137.5376625Q609.0773499999998 138.73155000000003 609.0773499999998 141.60292500000003Q609.0773499999998 144.39370000000002 608.2360874999998 145.62285000000003Q607.3948249999999 146.852 606.0951499999999 147.08876250000003Q604.7954749999999 147.32552500000003 603.3446749999998 147.32552500000003H591.2949749999998V185.751575Q591.2949749999998 187.41395 590.9826499999998 188.92520000000002Q590.6703249999998 190.43645 589.3001249999998 191.38350000000003Q587.9299249999998 192.33055000000002 584.5749499999998 192.33055000000002Q581.3610249999998 192.33055000000002 579.9555624999998 191.3482375Q578.5500999999998 190.365925 578.2780749999998 188.8496375Q578.0060499999998 187.33335 578.0060499999998 185.670975V147.32552500000003H565.8555999999999Q564.4753249999999 147.32552500000003 563.1756499999999 147.0535Q561.8759749999998 146.781475 561.0347124999998 145.5875875Q560.1934499999999 144.39370000000002 560.1934499999999 141.53240000000002Q560.1934499999999 138.73155000000003 561.0296749999999 137.5376625Q561.8658999999999 136.34377500000002 563.2008374999998 136.10197500000004Q564.5357749999998 135.86017500000003 565.9059749999999 135.86017500000003Z"/><path fill="#2db7fa" fill-opacity="1" d="M641.0881999999998 193.1567Q635.2372083333331 193.1567 630.1278916666665 190.94523750000002Q625.0185749999998 188.733775 621.1548124999998 184.79445Q617.2910499999998 180.85512500000002 615.0846249999997 175.67931599264708Q612.8781999999998 170.50350698529414 612.8781999999998 164.58829669117648Q612.8781999999998 158.508775 615.0120010416665 153.189351754386Q617.1458020833331 147.86992850877195 620.9209885416665 143.859901754386Q624.6961749999998 139.849875 629.703256992337 137.593075Q634.7103389846741 135.336275 640.4208953065132 135.336275Q646.2969749999999 135.336275 651.4075374074073 137.5396775Q656.5180998148146 139.74308000000002 660.3510216203701 143.70104375000003Q664.1839434259257 147.65900750000003 666.3682967129628 152.92269125Q668.5526499999999 158.186375 668.5526499999999 164.28459166666667Q668.5526499999999 170.21799166666668 666.4217874999998 175.45092083333333Q664.2909249999998 180.68385 660.491509433962 184.678422875817Q656.6920938679243 188.672995751634 651.736334433962 190.914847875817Q646.7805749999998 193.1567 641.0881999999998 193.1567ZM640.6757810465115 179.646125Q643.6573249999998 179.646125 646.2818624999998 178.46735Q648.9063999999998 177.288575 650.8760624999998 175.22320000000002Q652.8457249999998 173.157825 653.9438999999998 170.33504966960353Q655.0420749999998 167.51227433920707 655.0420749999998 164.2634197136564Q655.0420749999998 161.067825 653.9086374999998 158.27705Q652.7751999999998 155.486275 650.8004999999998 153.350375Q648.8257999999998 151.21447500000002 646.2458467289719 150.0306625Q643.6658934579438 148.84685000000002 640.7247467289718 148.84685000000002Q637.7835999999999 148.84685000000002 635.1943249999998 150.0306625Q632.6050499999998 151.21447500000002 630.6303499999998 153.34533750000003Q628.6556499999998 155.4762 627.5222124999998 158.28237472587722Q626.3887749999998 161.0885494517544 626.3887749999998 164.28811315789474Q626.3887749999998 167.435225 627.5284254166664 170.24002916666666Q628.6680758333331 173.04483333333334 630.6365629166664 175.1616666666667Q632.6050499999998 177.2785 635.1753465116277 178.4623125Q637.7456430232556 179.646125 640.6757810465115 179.646125Z"/><path fill="#2db7fa" fill-opacity="1" d="M700.3619999999997 193.1567Q694.511008333333 193.1567 689.4016916666665 190.94523750000002Q684.2923749999998 188.733775 680.4286124999998 184.79445Q676.5648499999998 180.85512500000002 674.3584249999997 175.67931599264708Q672.1519999999997 170.50350698529414 672.1519999999997 164.58829669117648Q672.1519999999997 158.508775 674.2858010416664 153.189351754386Q676.4196020833331 147.86992850877195 680.1947885416664 143.859901754386Q683.9699749999997 139.849875 688.9770569923369 137.593075Q693.984138984674 135.336275 699.6946953065132 135.336275Q705.5707749999998 135.336275 710.6813374074072 137.5396775Q715.7918998148145 139.74308000000002 719.6248216203701 143.70104375000003Q723.4577434259256 147.65900750000003 725.6420967129627 152.92269125Q727.8264499999998 158.186375 727.8264499999998 164.28459166666667Q727.8264499999998 170.21799166666668 725.6955874999998 175.45092083333333Q723.5647249999997 180.68385 719.765309433962 184.678422875817Q715.9658938679243 188.672995751634 711.010134433962 190.914847875817Q706.0543749999997 193.1567 700.3619999999997 193.1567ZM699.9495810465114 179.646125Q702.9311249999997 179.646125 705.5556624999997 178.46735Q708.1801999999998 177.288575 710.1498624999997 175.22320000000002Q712.1195249999997 173.157825 713.2176999999997 170.33504966960353Q714.3158749999998 167.51227433920707 714.3158749999998 164.2634197136564Q714.3158749999998 161.067825 713.1824374999998 158.27705Q712.0489999999998 155.486275 710.0742999999998 153.350375Q708.0995999999998 151.21447500000002 705.5196467289718 150.0306625Q702.9396934579437 148.84685000000002 699.9985467289717 148.84685000000002Q697.0573999999998 148.84685000000002 694.4681249999998 150.0306625Q691.8788499999997 151.21447500000002 689.9041499999997 153.34533750000003Q687.9294499999997 155.4762 686.7960124999997 158.28237472587722Q685.6625749999997 161.0885494517544 685.6625749999997 164.28811315789474Q685.6625749999997 167.435225 686.8022254166664 170.24002916666666Q687.941875833333 173.04483333333334 689.9103629166664 175.1616666666667Q691.8788499999997 177.2785 694.4491465116276 178.4623125Q697.0194430232556 179.646125 699.9495810465114 179.646125Z"/><path fill="#2db7fa" fill-opacity="1" d="M741.1078749999997 192.33055000000002Q737.8133499999997 192.33055000000002 736.4028499999997 191.3482375Q734.9923499999996 190.365925 734.6800249999997 188.78415Q734.3676999999997 187.20237500000002 734.3676999999997 185.54000000000002V142.66080000000002Q734.3676999999997 140.98835000000003 734.6749874999997 139.44183750000002Q734.9822749999997 137.895325 736.3877374999997 136.9130125Q737.7931999999997 135.9307 741.1481749999997 135.9307Q744.5031499999997 135.9307 745.8733499999996 136.9130125Q747.2435499999997 137.895325 747.5558749999997 139.44183750000002Q747.8681999999997 140.98835000000003 747.8681999999997 142.72125V180.72415H768.7536749999997Q770.2044749999997 180.72415 771.5041499999998 180.9609125Q772.8038249999997 181.197675 773.6450874999997 182.426825Q774.4863499999997 183.655975 774.4863499999997 186.517275Q774.4863499999997 189.30805 773.6148624999996 190.5422375Q772.7433749999997 191.77642500000002 771.4487374999997 192.05348750000002Q770.1540999999997 192.33055000000002 768.7032999999997 192.33055000000002Z"/><path fill="#2db7fa" fill-opacity="1" d="M798.6789999999996 193.126475Q794.0747249999997 193.126475 790.7701249999998 191.998075Q787.4655249999997 190.869675 785.2792499999997 189.2879Q783.0929749999997 187.70612500000001 781.8688624999998 186.31073750000002Q780.6447499999997 184.91535000000002 780.2820499999997 184.38137500000002Q778.8010249999996 182.49735 778.4534374999996 181.0112875Q778.1058499999997 179.525225 778.8715499999996 178.0442Q779.6372499999997 176.563175 781.5111999999997 174.80005Q783.2642499999997 173.157825 784.9064749999998 172.996625Q786.5486999999997 172.83542500000001 788.1355124999998 173.76232500000003Q789.7223249999997 174.68922500000002 791.2134249999997 176.43220000000002Q793.1578999999997 178.70915000000002 794.7850124999998 179.55545Q796.4121249999997 180.40175000000002 798.3565999999997 180.40175000000002Q800.7745999999997 180.40175000000002 802.3865999999997 179.80228750000003Q803.9985999999997 179.20282500000002 804.8096374999997 177.9636Q805.6206749999997 176.724375 805.6206749999997 174.789975Q805.6206749999997 173.218275 804.2655874999997 172.2863375Q802.9104999999997 171.3544 800.6990374999997 170.679375Q798.4875749999997 170.00435000000002 795.7622874999997 169.27895Q793.0369999999997 168.55355 790.3570499999997 167.455375Q788.6543749999997 166.8005 787.0272624999998 165.843375Q785.4001499999997 164.88625000000002 783.9846124999997 163.647025Q782.5690749999997 162.4078 781.5313499999997 160.69505Q780.4936249999997 158.9823 779.9243874999997 156.80610000000001Q779.3551499999996 154.62990000000002 779.3551499999996 151.85927500000003Q779.3551499999996 147.023275 781.7630749999996 143.2401125Q784.1709999999997 139.45695 788.4075374999998 137.2555625Q792.6440749999997 135.05417500000001 798.0543499999997 135.05417500000001Q801.8425499999997 135.05417500000001 804.6131749999997 135.68890000000002Q807.3837999999997 136.32362500000002 809.2174499999996 137.21526250000002Q811.0510999999997 138.10690000000002 812.0837874999997 138.91290000000004Q813.1164749999997 139.71890000000002 813.4388749999997 140.071525Q815.8971749999997 142.3384 816.1288999999997 143.95543750000002Q816.3606249999997 145.572475 814.3153999999997 148.51437500000003Q812.0787499999997 151.64770000000001 809.9327749999997 152.03055Q807.7867999999996 152.41340000000002 804.9960249999997 150.59990000000002Q804.2000999999997 149.904725 803.3890624999997 149.239775Q802.5780249999997 148.574825 801.3690249999997 148.1416Q800.1600249999997 147.70837500000002 797.9737499999997 147.70837500000002Q796.9561749999997 147.70837500000002 795.9839374999997 148.030775Q795.0116999999997 148.35317500000002 794.3215624999997 148.89722500000002Q793.6314249999997 149.44127500000002 793.2082749999997 150.227125Q792.7851249999997 151.012975 792.7851249999997 151.93987500000003Q792.7851249999997 153.72315 794.0495374999996 154.75080000000003Q795.3139499999996 155.77845000000002 797.4196249999997 156.35776250000004Q799.5252999999997 156.93707500000002 802.0793124999997 157.48112500000002Q804.6333249999997 158.02517500000002 807.2830499999997 158.831175Q809.5801499999997 159.5868 811.7311624999998 160.73535Q813.8821749999997 161.8839 815.5344749999997 163.66717500000001Q817.1867749999997 165.45045000000002 818.1892374999996 168.0901Q819.1916999999996 170.72975000000002 819.1916999999996 174.54817500000001Q819.1916999999996 179.585675 817.2522624999997 183.1572625Q815.3128249999996 186.72885000000002 812.1996499999997 188.91512500000002Q809.0864749999997 191.1014 805.5148874999998 192.11393750000002Q801.9432999999997 193.126475 798.6789999999996 193.126475Z"/><path fill="#f2f6fc" fill-opacity="1" d="M601.1225499999997 234.33775Q599.7115499999998 234.33775 598.0625499999998 233.893625Q596.4135499999998 233.4495 594.7879249999997 232.512375Q593.1622999999997 231.57524999999998 591.8256749999997 230.106875Q590.4890499999997 228.6385 589.6879249999997 226.621875Q588.8867999999997 224.60524999999998 588.8867999999997 221.9915Q588.8867999999997 219.47125 589.6879249999997 217.5205Q590.4890499999997 215.56975 591.8107999999997 214.14175Q593.1325499999997 212.71374999999998 594.7581749999997 211.810625Q596.3837999999997 210.9075 598.0625499999996 210.4655Q599.7412999999997 210.02349999999998 601.2117999999997 210.01925Q602.9415499999997 210.01925 604.2505499999997 210.4315Q605.5595499999997 210.84375 606.3819249999997 211.292125Q607.2042999999996 211.7405 607.4210499999997 211.885Q608.0670499999997 212.30149999999998 608.6365499999997 212.803Q609.2060499999997 213.3045 609.2145499999997 214.12474999999998Q609.2230499999997 214.55399999999997 609.0487999999997 214.99174999999997Q608.8745499999997 215.4295 608.5345499999997 215.897Q607.9225499999997 216.75975 607.3764249999997 217.15925Q606.8302999999997 217.55874999999997 606.2947999999997 217.55874999999997Q605.8697999999997 217.55874999999997 605.4830499999997 217.35474999999997Q605.0962999999997 217.15075 604.5437999999997 216.79375Q604.3100499999997 216.628 603.8977999999997 216.392125Q603.4855499999996 216.15625 602.7864249999997 215.954375Q602.0872999999997 215.7525 600.9865499999997 215.7525Q599.9580499999997 215.7525 598.8317999999997 216.124375Q597.7055499999997 216.49624999999997 596.7407999999997 217.26975Q595.7760499999997 218.04325 595.1810499999997 219.265125Q594.5860499999997 220.487 594.5860499999997 222.1615Q594.5860499999997 223.86575 595.1959249999998 225.074875Q595.8057999999997 226.284 596.7705499999997 227.0575Q597.7352999999997 227.831 598.8615499999996 228.202875Q599.9877999999997 228.57475 600.9865499999997 228.57475Q601.9385499999997 228.57475 602.6079249999998 228.402625Q603.2772999999997 228.23049999999998 603.7936749999997 227.94787499999998Q604.3100499999997 227.66525 604.6925499999998 227.41449999999998Q605.0665499999997 227.15099999999998 605.4830499999997 226.947Q605.8995499999997 226.743 606.3245499999997 226.743Q606.8600499999997 226.743 607.3912999999997 227.17012499999998Q607.9225499999997 227.59725 608.5047999999997 228.48975Q608.8447999999997 229.0125 609.0190499999997 229.46937499999999Q609.1932999999997 229.92624999999998 609.1847999999997 230.32575Q609.1762999999997 231.11624999999998 608.6067999999998 231.60287499999998Q608.0372999999997 232.0895 607.3912999999997 232.47625Q607.1447999999997 232.6165 606.3649249999996 233.081875Q605.5850499999997 233.54725 604.2760499999997 233.9425Q602.9670499999997 234.33775 601.1225499999997 234.33775Z"/><path fill="#f2f6fc" fill-opacity="1" d="M620.3975499999997 234.32925Q618.8165499999997 234.32925 617.2312999999997 233.698125Q615.6460499999997 233.06699999999998 614.3285499999997 231.900375Q613.0110499999997 230.73375 612.2311749999997 229.103875Q611.4512999999997 227.474 611.4512999999997 225.4765Q611.4512999999997 223.62349999999998 612.1546749999998 222.010625Q612.8580499999997 220.39775 614.0862999999997 219.1695Q615.3145499999997 217.94125 616.9125499999998 217.23787499999997Q618.5105499999997 216.53449999999998 620.3295499999997 216.53449999999998Q622.8157999999997 216.53449999999998 624.8302999999997 217.72449999999998Q626.8447999999997 218.91449999999998 628.0517999999997 220.93112499999998Q629.2587999999997 222.94774999999998 629.2587999999997 225.4425Q629.2587999999997 227.53775 628.4661749999998 229.1825Q627.6735499999998 230.82725 626.3751749999997 231.97899999999998Q625.0767999999997 233.13074999999998 623.5106749999998 233.73Q621.9445499999997 234.32925 620.3975499999997 234.32925ZM620.3295499999997 228.6555Q620.9925499999997 228.6555 621.7490499999997 228.32399999999998Q622.5055499999997 227.99249999999998 623.0410499999998 227.272125Q623.5765499999998 226.55175 623.5765499999998 225.40425Q623.5765499999998 224.43099999999998 623.1621749999997 223.71699999999998Q622.7477999999998 223.003 622.0061749999998 222.60562499999997Q621.2645499999998 222.20825 620.2955499999997 222.20825Q619.4200499999997 222.20825 618.7081749999998 222.62475Q617.9962999999997 223.04125 617.5649249999997 223.770125Q617.1335499999997 224.499 617.1335499999997 225.43824999999998Q617.1335499999997 226.56025 617.6541749999997 227.2785Q618.1747999999997 227.99675 618.9185499999996 228.326125Q619.6622999999997 228.6555 620.3295499999997 228.6555Z"/><path fill="#f2f6fc" fill-opacity="1" d="M634.7807999999997 234.04025Q633.3995499999997 234.04025 632.8087999999998 233.625875Q632.2180499999997 233.2115 632.1032999999998 232.559125Q631.9885499999997 231.90675 631.9885499999997 231.2055V219.69225Q631.9885499999997 218.9655 632.1181749999996 218.33225Q632.2477999999996 217.69899999999998 632.8406749999997 217.301625Q633.4335499999997 216.90425 634.8445499999997 216.90425Q636.2427999999996 216.90425 636.8781749999996 217.450375Q637.5135499999997 217.9965 637.5135499999997 219.21625L637.0077999999997 219.3225Q637.0460499999997 219.23325 637.3392999999996 218.85287499999998Q637.6325499999997 218.4725 638.1531749999997 218.00712499999997Q638.6737999999997 217.54174999999998 639.3941749999997 217.20387499999998Q640.1145499999997 216.86599999999999 641.0070499999997 216.86599999999999Q642.0822999999997 216.86599999999999 642.9769249999997 217.1635Q643.8715499999997 217.46099999999998 644.6046749999997 218.06025Q645.3377999999997 218.65949999999998 645.8775499999997 219.53074999999998Q646.3025499999997 218.974 646.9676749999996 218.359875Q647.6327999999997 217.74575 648.5465499999998 217.305875Q649.4602999999997 216.86599999999999 650.5992999999997 216.86599999999999Q652.5967999999997 216.86599999999999 653.9907999999997 217.8775Q655.3847999999997 218.88899999999998 656.1051749999997 220.79725Q656.8255499999997 222.7055 656.8255499999997 225.40425V231.20974999999999Q656.8255499999997 231.911 656.6959249999998 232.563375Q656.5662999999997 233.21574999999999 655.9755499999997 233.628Q655.3847999999997 234.04025 653.9695499999997 234.04025Q652.5840499999997 234.04025 651.9911749999997 233.611Q651.3982999999997 233.18175 651.2835499999997 232.529375Q651.1687999999997 231.87699999999998 651.1687999999997 231.17575V225.37025Q651.1687999999997 224.43949999999998 650.9520499999996 223.81475Q650.7352999999997 223.19 650.3166749999997 222.860625Q649.8980499999997 222.53125 649.2520499999997 222.53125Q648.5677999999997 222.53125 648.1151749999997 222.830875Q647.6625499999997 223.13049999999998 647.4479249999997 223.75525Q647.2332999999996 224.38 647.2332999999996 225.39999999999998V231.214Q647.2332999999996 231.92374999999998 647.0866749999997 232.580375Q646.9400499999997 233.237 646.3344249999998 233.64499999999998Q645.7287999999998 234.053 644.3262999999997 234.036Q642.9620499999997 234.0275 642.3797999999997 233.596125Q641.7975499999997 233.16475 641.6870499999997 232.5145Q641.5765499999997 231.86425 641.5765499999997 231.17575V225.37025Q641.5765499999997 224.43949999999998 641.3746749999997 223.799875Q641.1727999999997 223.16025 640.7541749999997 222.84575Q640.3355499999997 222.53125 639.6597999999997 222.53125Q638.8862999999997 222.53125 638.4485499999996 222.92012499999998Q638.0107999999997 223.309 637.8259249999996 223.948625Q637.6410499999997 224.58825 637.6410499999997 225.37025V231.2395Q637.6410499999997 231.94074999999998 637.5114249999997 232.593125Q637.3817999999997 233.2455 636.7889249999996 233.642875Q636.1960499999997 234.04025 634.7807999999997 234.04025Z"/><path fill="#f2f6fc" fill-opacity="1" d="M667.6600499999996 233.98925Q666.0492999999997 233.98925 664.6616749999996 233.362375Q663.2740499999996 232.7355 662.2370499999997 231.59224999999998Q661.2000499999997 230.44899999999998 660.6305499999996 228.912625Q660.0610499999997 227.37625 660.0610499999997 225.553V219.70499999999998Q660.0610499999997 218.974 660.1906749999996 218.3365Q660.3202999999996 217.69899999999998 660.9131749999997 217.28674999999998Q661.5060499999996 216.87449999999998 662.8872999999996 216.87449999999998Q664.3025499999997 216.87449999999998 664.8805499999996 217.288875Q665.4585499999996 217.70325 665.5881749999996 218.35562499999997Q665.7177999999997 219.00799999999998 665.7177999999997 219.73899999999998V225.55724999999998Q665.7177999999997 226.44549999999998 666.0386749999997 227.07662499999998Q666.3595499999997 227.70774999999998 666.9864249999996 228.04562499999997Q667.6132999999996 228.3835 668.4717999999997 228.3835Q669.3345499999997 228.3835 669.9592999999998 228.03075Q670.5840499999997 227.678 670.9325499999998 227.046875Q671.2810499999997 226.41575 671.2810499999997 225.55724999999998V219.67524999999998Q671.2810499999997 218.94424999999998 671.4106749999996 218.30674999999997Q671.5402999999997 217.66924999999998 672.1331749999997 217.27187499999997Q672.7260499999996 216.87449999999998 674.1115499999996 216.87449999999998Q675.5225499999997 216.87449999999998 676.0984249999997 217.288875Q676.6742999999997 217.70325 676.8039249999997 218.35562499999997Q676.9335499999996 219.00799999999998 676.9335499999996 219.70925V231.28199999999998Q676.9335499999996 231.97475 676.8039249999997 232.59525Q676.6742999999997 233.21574999999999 676.0835499999996 233.61312499999997Q675.4927999999996 234.01049999999998 674.1072999999997 234.01049999999998Q673.0957999999996 234.01049999999998 672.5241749999996 233.78099999999998Q671.9525499999996 233.55149999999998 671.7017999999996 233.19662499999998Q671.4510499999997 232.84175 671.4000499999997 232.47837499999997Q671.3490499999997 232.11499999999998 671.3490499999997 231.84725L671.8547999999996 231.74525Q671.7995499999996 231.8175 671.4935499999997 232.166Q671.1875499999996 232.5145 670.6435499999997 232.9395Q670.0995499999997 233.3645 669.3579249999997 233.676875Q668.6162999999997 233.98925 667.6600499999996 233.98925Z"/><path fill="#f2f6fc" fill-opacity="1" d="M683.1142999999997 234.01049999999998Q681.7330499999997 234.01049999999998 681.1422999999998 233.59612499999997Q680.5515499999997 233.18175 680.4367999999997 232.529375Q680.3220499999996 231.87699999999998 680.3220499999996 231.17575V219.60299999999998Q680.3220499999996 218.90599999999998 680.4516749999997 218.287625Q680.5812999999997 217.66924999999998 681.1741749999997 217.28674999999998Q681.7670499999997 216.90425 683.1482999999997 216.90425Q684.3977999999997 216.90425 684.9694249999998 217.22299999999998Q685.5410499999997 217.54174999999998 685.7025499999997 218.00074999999998Q685.8640499999997 218.45974999999999 685.8555499999998 218.85287499999998Q685.8470499999997 219.24599999999998 685.9065499999997 219.36499999999998L685.6685499999998 219.79424999999998Q685.6940499999997 219.27575 686.1339249999996 218.763625Q686.5737999999997 218.2515 687.2665499999997 217.8265Q687.9592999999998 217.4015 688.7582999999997 217.14862499999998Q689.5572999999997 216.89575 690.3052999999996 216.89575Q691.9755499999997 216.89575 693.2611749999996 217.522625Q694.5467999999997 218.1495 695.4201749999997 219.29274999999998Q696.2935499999998 220.43599999999998 696.7440499999998 221.972375Q697.1945499999997 223.50875 697.1945499999997 225.332V231.20974999999999Q697.1945499999997 231.911 697.0649249999997 232.563375Q696.9352999999996 233.21574999999999 696.3594249999996 233.61312499999997Q695.7835499999997 234.01049999999998 694.3682999999997 234.01049999999998Q692.9530499999997 234.01049999999998 692.3601749999998 233.59612499999997Q691.7672999999998 233.18175 691.6376749999997 232.529375Q691.5080499999997 231.87699999999998 691.5080499999997 231.17575V225.32774999999998Q691.5080499999997 224.43525 691.1871749999997 223.80624999999998Q690.8662999999997 223.17725 690.2691749999997 222.839375Q689.6720499999997 222.5015 688.7795499999997 222.5015Q687.9210499999997 222.5015 687.2814249999997 222.85424999999998Q686.6417999999996 223.207 686.2932999999996 223.83599999999998Q685.9447999999996 224.46499999999997 685.9447999999996 225.32774999999998V231.20974999999999Q685.9447999999996 231.911 685.8151749999997 232.563375Q685.6855499999997 233.21574999999999 685.1075499999997 233.61312499999997Q684.5295499999997 234.01049999999998 683.1142999999997 234.01049999999998Z"/><path fill="#f2f6fc" fill-opacity="1" d="M703.4942999999997 234.0445Q702.1130499999997 234.0445 701.5201749999997 233.630125Q700.9272999999997 233.21574999999999 700.8125499999996 232.563375Q700.6977999999997 231.911 700.6977999999997 231.20974999999999V219.73475Q700.6977999999997 219.0335 700.8274249999997 218.39600000000002Q700.9570499999998 217.7585 701.5499249999998 217.34625Q702.1427999999997 216.934 703.5282999999997 216.934Q704.9137999999997 216.934 705.4896749999997 217.34837499999998Q706.0655499999997 217.76274999999998 706.1951749999997 218.415125Q706.3247999999998 219.0675 706.3247999999998 219.80275V231.24374999999998Q706.3247999999998 231.945 706.1951749999997 232.597375Q706.0655499999997 233.24974999999998 705.4875499999997 233.647125Q704.9095499999997 234.0445 703.4942999999997 234.0445ZM703.4942999999997 214.86425Q702.0960499999998 214.86425 701.4967999999997 214.445625Q700.8975499999997 214.027 700.7785499999998 213.36399999999998Q700.6595499999997 212.701 700.6595499999997 211.987Q700.6595499999997 211.24325 700.7934249999997 210.59937499999998Q700.9272999999997 209.95549999999997 701.5286749999998 209.55387499999998Q702.1300499999998 209.15224999999998 703.5282999999997 209.15224999999998Q704.9265499999997 209.15224999999998 705.5109249999997 209.570875Q706.0952999999997 209.9895 706.2291749999997 210.650375Q706.3630499999997 211.31124999999997 706.3630499999997 212.02949999999998Q706.3630499999997 212.73925 706.2291749999997 213.400125Q706.0952999999997 214.06099999999998 705.5109249999997 214.462625Q704.9265499999997 214.86425 703.4942999999997 214.86425Z"/><path fill="#f2f6fc" fill-opacity="1" d="M717.2315499999997 233.98499999999999Q715.6972999999998 233.98499999999999 714.2905499999997 233.30287499999997Q712.8837999999997 232.62075 711.7894249999997 231.42862499999998Q710.6950499999998 230.23649999999998 710.0575499999998 228.67887499999998Q709.4200499999997 227.12124999999997 709.4200499999997 225.40425Q709.4200499999997 223.75099999999998 710.0575499999998 222.227375Q710.6950499999998 220.70374999999999 711.8042999999998 219.51375Q712.9135499999998 218.32375 714.3202999999997 217.62675Q715.7270499999997 216.92974999999998 717.2315499999997 216.92974999999998Q718.8677999999998 216.92974999999998 720.0832999999998 217.611875Q721.2987999999998 218.29399999999998 722.1105499999998 219.47125Q722.9222999999997 220.64849999999998 723.3345499999998 222.17424999999997Q723.7467999999998 223.7 723.7765499999998 225.3575Q723.8062999999997 227.04475 723.4089249999997 228.58325Q723.0115499999997 230.12175 722.1997999999998 231.3415Q721.3880499999998 232.56125 720.1576749999997 233.273125Q718.9272999999997 233.98499999999999 717.2315499999997 233.98499999999999ZM717.9837999999997 228.40474999999998Q718.7615499999997 228.40474999999998 719.4032999999997 228.00737499999997Q720.0450499999997 227.60999999999999 720.4402999999998 226.94275Q720.8355499999998 226.2755 720.8355499999998 225.4765Q720.8355499999998 224.6435 720.4551749999998 223.98899999999998Q720.0747999999998 223.3345 719.4309249999998 222.93712499999998Q718.7870499999998 222.53975 717.9540499999997 222.53975Q717.1507999999998 222.53975 716.4899249999997 222.92225Q715.8290499999997 223.30474999999998 715.4486749999998 223.974125Q715.0682999999998 224.6435 715.0682999999998 225.4765Q715.0682999999998 226.2755 715.4635499999997 226.94275Q715.8587999999997 227.60999999999999 716.5345499999997 228.00737499999997Q717.2102999999997 228.40474999999998 717.9837999999997 228.40474999999998ZM723.7382999999998 234.01475Q722.4802999999997 234.01475 721.8576749999997 233.628Q721.2350499999998 233.24124999999998 721.0267999999998 232.39974999999998V211.99124999999998Q721.0267999999998 211.28574999999998 721.1117999999997 210.633375Q721.1967999999997 209.981 721.7599249999997 209.566625Q722.3230499999997 209.15224999999998 723.7042999999998 209.15224999999998Q725.1195499999998 209.15224999999998 725.6954249999998 209.55174999999997Q726.2712999999998 209.95125 726.4030499999998 210.58875Q726.5347999999998 211.22625 726.5347999999998 211.95725V231.17575Q726.5347999999998 231.87699999999998 726.4051749999998 232.5315Q726.2755499999997 233.18599999999998 725.6996749999997 233.60037499999999Q725.1237999999997 234.01475 723.7382999999998 234.01475Z"/><path fill="#f2f6fc" fill-opacity="1" d="M743.7697999999997 233.98075Q742.3715499999997 233.98075 741.7064249999997 233.50475Q741.0412999999998 233.02875 741.0625499999998 232.38275L741.4790499999997 232.09799999999998Q741.2835499999998 232.387 740.7522999999998 232.829Q740.2210499999998 233.271 739.3476749999998 233.628Q738.4742999999997 233.98499999999999 737.2077999999997 233.98499999999999Q735.6607999999998 233.98499999999999 734.2497999999998 233.29649999999998Q732.8387999999998 232.60799999999998 731.7401749999997 231.39675Q730.6415499999997 230.1855 730.0019249999998 228.647Q729.3622999999998 227.1085 729.3622999999998 225.40425Q729.3622999999998 223.73825 730.0019249999998 222.218875Q730.6415499999997 220.6995 731.7571749999997 219.50525Q732.8727999999998 218.31099999999998 734.2689249999997 217.6225Q735.6650499999997 216.934 737.2077999999997 216.934Q738.4190499999997 216.934 739.2605499999997 217.2825Q740.1020499999997 217.631 740.6417999999998 218.07725Q741.1815499999998 218.52349999999998 741.4195499999997 218.88049999999998L741.0922999999997 218.63825Q741.0625499999998 217.80949999999999 741.7297999999997 217.356875Q742.3970499999997 216.90425 743.8037999999997 216.90425Q745.1850499999997 216.90425 745.7587999999997 217.32074999999998Q746.3325499999997 217.73725 746.4621749999997 218.396Q746.5917999999997 219.05474999999998 746.5917999999997 219.76874999999998V231.16299999999998Q746.5917999999997 231.86849999999998 746.4621749999997 232.525125Q746.3325499999997 233.18175 745.7566749999997 233.58125Q745.1807999999997 233.98075 743.7697999999997 233.98075ZM737.9982999999997 228.37924999999998Q738.7675499999997 228.37924999999998 739.3944249999997 227.977625Q740.0212999999998 227.576 740.4016749999997 226.906625Q740.7820499999997 226.23725 740.7820499999997 225.4425Q740.7820499999997 224.60524999999998 740.3974249999997 223.95074999999997Q740.0127999999997 223.29625 739.3689249999998 222.89887499999998Q738.7250499999998 222.5015 737.9302999999998 222.5015Q737.1015499999997 222.5015 736.4364249999998 222.90525Q735.7712999999998 223.309 735.3760499999997 223.9805Q734.9807999999997 224.652 734.9807999999997 225.48075Q734.9807999999997 226.27124999999998 735.3909249999997 226.92575Q735.8010499999997 227.58024999999998 736.4852999999997 227.97974999999997Q737.1695499999997 228.37924999999998 737.9982999999997 228.37924999999998Z"/><path fill="#f2f6fc" fill-opacity="1" d="M757.2775499999997 233.98499999999999Q755.7432999999997 233.98499999999999 754.3365499999998 233.30287499999997Q752.9297999999997 232.62075 751.8354249999998 231.42862499999998Q750.7410499999997 230.23649999999998 750.1035499999997 228.67887499999998Q749.4660499999997 227.12124999999997 749.4660499999997 225.40425Q749.4660499999997 223.75099999999998 750.1035499999997 222.227375Q750.7410499999997 220.70374999999999 751.8502999999997 219.51375Q752.9595499999997 218.32375 754.3662999999997 217.62675Q755.7730499999997 216.92974999999998 757.2775499999997 216.92974999999998Q758.9137999999997 216.92974999999998 760.1292999999997 217.611875Q761.3447999999997 218.29399999999998 762.1565499999997 219.47125Q762.9682999999997 220.64849999999998 763.3805499999996 222.17424999999997Q763.7927999999997 223.7 763.8225499999998 225.3575Q763.8522999999997 227.04475 763.4549249999997 228.58325Q763.0575499999997 230.12175 762.2457999999997 231.3415Q761.4340499999997 232.56125 760.2036749999997 233.273125Q758.9732999999997 233.98499999999999 757.2775499999997 233.98499999999999ZM758.0297999999997 228.40474999999998Q758.8075499999997 228.40474999999998 759.4492999999997 228.00737499999997Q760.0910499999997 227.60999999999999 760.4862999999997 226.94275Q760.8815499999997 226.2755 760.8815499999997 225.4765Q760.8815499999997 224.6435 760.5011749999996 223.98899999999998Q760.1207999999997 223.3345 759.4769249999997 222.93712499999998Q758.8330499999997 222.53975 758.0000499999996 222.53975Q757.1967999999997 222.53975 756.5359249999997 222.92225Q755.8750499999996 223.30474999999998 755.4946749999997 223.974125Q755.1142999999997 224.6435 755.1142999999997 225.4765Q755.1142999999997 226.2755 755.5095499999998 226.94275Q755.9047999999997 227.60999999999999 756.5805499999997 228.00737499999997Q757.2562999999997 228.40474999999998 758.0297999999997 228.40474999999998ZM763.7842999999997 234.01475Q762.5262999999997 234.01475 761.9036749999997 233.628Q761.2810499999997 233.24124999999998 761.0727999999997 232.39974999999998V211.99124999999998Q761.0727999999997 211.28574999999998 761.1577999999997 210.633375Q761.2427999999996 209.981 761.8059249999997 209.566625Q762.3690499999997 209.15224999999998 763.7502999999997 209.15224999999998Q765.1655499999997 209.15224999999998 765.7414249999997 209.55174999999997Q766.3172999999997 209.95125 766.4490499999997 210.58875Q766.5807999999997 211.22625 766.5807999999997 211.95725V231.17575Q766.5807999999997 231.87699999999998 766.4511749999997 232.5315Q766.3215499999997 233.18599999999998 765.7456749999997 233.60037499999999Q765.1697999999997 234.01475 763.7842999999997 234.01475Z"/><path fill="#f2f6fc" fill-opacity="1" d="M787.4847999999996 234.40574999999998Q785.6572999999996 234.40574999999998 784.0486749999997 233.80649999999997Q782.4400499999997 233.20725 781.1884249999996 232.159625Q779.9367999999996 231.112 779.2334249999997 229.766875Q778.5300499999996 228.42175 778.5130499999997 226.95974999999999Q778.5130499999997 224.975 781.6155499999996 224.975Q782.5037999999996 224.975 782.9585499999996 225.138625Q783.4132999999997 225.30225 783.6916749999997 225.712375Q783.9700499999997 226.1225 784.2505499999996 226.8705Q784.3100499999997 227.04049999999998 784.6181749999996 227.52074999999996Q784.9262999999996 228.00099999999998 785.6147999999996 228.426Q786.3032999999997 228.851 787.5187999999996 228.851Q788.5515499999997 228.851 789.2910499999996 228.55775Q790.0305499999996 228.2645 790.4406749999996 227.72899999999998Q790.8507999999997 227.1935 790.8507999999997 226.50074999999998Q790.8507999999997 225.72725 790.4555499999997 225.202375Q790.0602999999996 224.67749999999998 789.3887999999997 224.42037499999998Q788.7172999999997 224.16324999999998 787.8247999999996 224.16324999999998Q787.1022999999997 224.16324999999998 786.4414249999996 224.06124999999997Q785.7805499999996 223.95925 785.3661749999997 223.39612499999998Q784.9517999999997 222.833 784.9517999999997 221.4475Q784.9517999999997 220.03224999999998 785.3661749999997 219.486125Q785.7805499999996 218.94 786.4562999999996 218.85287499999998Q787.1320499999997 218.76575 787.8587999999996 218.76575Q788.6535499999997 218.76575 789.1911749999997 218.623375Q789.7287999999996 218.481 790.0071749999996 218.16649999999998Q790.2855499999996 217.85199999999998 790.2855499999996 217.35049999999998Q790.2855499999996 216.7385 789.9837999999996 216.29649999999998Q789.6820499999997 215.85449999999997 789.1252999999997 215.61862499999998Q788.5685499999996 215.38275 787.8162999999996 215.38275Q786.9577999999997 215.38275 786.4222999999997 215.59949999999998Q785.8867999999997 215.81625 785.5637999999997 216.1775Q785.2407999999997 216.53875 785.0027999999996 216.934Q784.3865499999996 218.2515 783.4196749999996 218.51074999999997Q782.4527999999997 218.76999999999998 781.0672999999997 218.00924999999998Q779.7582999999996 217.2145 779.5627999999997 216.328375Q779.3672999999997 215.44225 779.9750499999997 214.2225Q780.0047999999997 214.19275 780.2172999999997 213.75074999999998Q780.4297999999997 213.30874999999997 780.9504249999997 212.67337499999996Q781.4710499999997 212.03799999999998 782.3146749999996 211.40049999999997Q783.1582999999996 210.76299999999998 784.4481749999997 210.340125Q785.7380499999997 209.91725 787.5102999999997 209.91725Q789.5885499999996 209.91725 791.1674249999996 210.573875Q792.7462999999997 211.23049999999998 793.8279249999996 212.28875Q794.9095499999996 213.34699999999998 795.4620499999996 214.632625Q796.0145499999996 215.91825 796.0145499999996 217.21024999999997Q796.0145499999996 218.44275 795.5874249999997 219.3225Q795.1602999999997 220.20225 794.5759249999996 220.725Q793.9915499999996 221.24775 793.5537999999997 221.47725Q793.9617999999997 221.7025 794.4760499999998 222.13174999999998Q794.9902999999997 222.56099999999998 795.4556749999997 223.20274999999998Q795.9210499999997 223.84449999999998 796.2334249999997 224.64987499999998Q796.5457999999996 225.45524999999998 796.5457999999996 226.43275Q796.5457999999996 228.73624999999998 795.3749249999996 230.53187499999999Q794.2040499999996 232.3275 792.1576749999997 233.366625Q790.1112999999997 234.40574999999998 787.4847999999996 234.40574999999998Z"/><path fill="#f2f6fc" fill-opacity="1" d="M802.1995499999997 234.01475Q800.8820499999997 234.01475 800.2891749999997 233.611Q799.6962999999996 233.20725 799.5326749999997 232.55275Q799.3690499999997 231.89825 799.3690499999997 231.146V213.05374999999998Q799.3690499999997 212.35674999999998 799.5029249999997 211.70437499999997Q799.6367999999997 211.052 800.2317999999997 210.63549999999998Q800.8267999999997 210.219 802.2335499999997 210.24874999999997L808.2217999999997 210.253Q810.6527999999996 210.253 812.7799249999996 211.15612499999997Q814.9070499999997 212.05925 816.5262999999997 213.6615Q818.1455499999996 215.26375 819.0550499999997 217.40999999999997Q819.9645499999997 219.55624999999998 819.9645499999997 222.01274999999998Q819.9645499999997 224.53725 819.0529249999997 226.719625Q818.1412999999997 228.902 816.5220499999996 230.53825Q814.9027999999996 232.1745 812.7586749999996 233.094625Q810.6145499999997 234.01475 808.1197999999997 234.01475ZM805.0640499999996 228.3155H808.2217999999997Q809.9090499999996 228.3155 811.2860499999997 227.49949999999998Q812.6630499999997 226.68349999999998 813.4641749999996 225.29375Q814.2652999999997 223.904 814.2652999999997 222.153Q814.2652999999997 220.39775 813.4641749999996 218.99099999999999Q812.6630499999997 217.58425 811.2839249999997 216.76825Q809.9047999999997 215.95225 808.1877999999997 215.95225H805.0640499999996Z"/></svg>