<svg xmlns="http://www.w3.org/2000/svg" xmlns:xlink="http://www.w3.org/1999/xlink" width="1116" height="400" viewBox="0 0 837 299.999988" preserveAspectRatio="xMidYMid meet" version="1.0"><defs><g/><clipPath id="e6503058f6"><path d="M 28 99.875 L 153 99.875 L 153 130 L 28 130 Z M 28 99.875 " clip-rule="nonzero"/></clipPath><clipPath id="7767f128fe"><path d="M 8 217 L 174 217 L 174 241.625 L 8 241.625 Z M 8 217 " clip-rule="nonzero"/></clipPath></defs><g clip-path="url(#e6503058f6)"><path fill="#f2f6fc" d="M 31.84375 105.804688 L 67.199219 105.804688 C 67.199219 105.804688 67.199219 126.429688 67.199219 126.429688 C 67.199219 128.050781 68.527344 129.375 70.144531 129.375 L 111.394531 129.375 C 113.015625 129.375 114.339844 128.050781 114.339844 126.429688 L 114.339844 105.804688 L 149.695312 105.804688 C 151.316406 105.804688 152.640625 104.476562 152.640625 102.859375 C 152.640625 101.238281 151.316406 99.910156 149.695312 99.910156 L 31.84375 99.910156 C 28.015625 99.976562 27.941406 105.722656 31.84375 105.804688 Z M 31.84375 105.804688 " fill-opacity="1" fill-rule="nonzero"/></g><g clip-path="url(#7767f128fe)"><path fill="#f2f6fc" d="M 161.480469 217.773438 L 20.058594 217.773438 C 13.726562 217.648438 8.148438 223.222656 8.273438 229.558594 C 8.273438 236.070312 13.546875 241.347656 20.058594 241.347656 L 161.480469 241.347656 C 164.632812 241.347656 167.578125 240.109375 169.816406 237.898438 C 177.195312 230.765625 171.808594 217.570312 161.480469 217.773438 Z M 161.480469 217.773438 " fill-opacity="1" fill-rule="nonzero"/></g><path fill="#f2f6fc" d="M 161.480469 200.09375 L 20.058594 200.09375 C 16.90625 200.09375 13.960938 201.332031 11.722656 203.542969 C 8.5625 206.667969 7.386719 211.644531 8.980469 215.800781 C 12.164062 213.234375 16.023438 211.878906 20.058594 211.878906 L 161.480469 211.878906 C 165.691406 211.878906 169.550781 213.355469 172.585938 215.800781 C 175.355469 208.347656 169.472656 199.941406 161.480469 200.09375 Z M 161.480469 200.09375 " fill-opacity="1" fill-rule="nonzero"/><path fill="#f2f6fc" d="M 93.714844 173.574219 L 93.714844 162.863281 L 107.769531 145.996094 C 107.886719 145.847656 107.945312 145.671875 108.035156 145.523438 C 108.316406 145.128906 108.4375 144.628906 108.445312 144.109375 C 108.445312 144.109375 108.445312 135.269531 108.445312 135.269531 L 73.09375 135.269531 C 73.234375 136.710938 72.707031 144.957031 73.503906 145.523438 C 73.59375 145.671875 73.652344 145.847656 73.769531 145.996094 L 87.824219 162.863281 C 87.824219 162.863281 87.824219 173.574219 87.824219 173.574219 C 87.824219 181.707031 94.421875 188.308594 102.554688 188.308594 L 161.480469 188.308594 C 164.71875 188.308594 167.371094 190.960938 167.371094 194.203125 C 167.371094 194.554688 167.34375 194.878906 167.285156 195.203125 C 169.226562 195.851562 171.023438 196.851562 172.585938 198.121094 C 173.027344 196.882812 173.265625 195.585938 173.265625 194.203125 C 173.265625 187.6875 167.992188 182.414062 161.480469 182.414062 L 102.554688 182.414062 C 97.691406 182.414062 93.714844 178.4375 93.714844 173.574219 Z M 93.714844 173.574219 " fill-opacity="1" fill-rule="nonzero"/><path fill="#2db7fa" fill-opacity="1" d="M193.984325 192.260025Q190.699875 192.260025 189.2944125 191.2777125Q187.88895 190.2954 187.5816625 188.70858750000002Q187.274375 187.121775 187.274375 185.45940000000002V142.65072500000002Q187.274375 140.998425 187.5917375 139.4519125Q187.9091 137.90540000000001 189.31959999999998 136.91805Q190.7301 135.9307 194.064925 135.9307H210.366275Q213.56005 135.9307 217.06111249999998 137.169925Q220.562175 138.40915 223.624975 140.9530875Q226.687775 143.497025 228.59698749999998 147.28522500000003Q230.50619999999998 151.07342500000001 230.50619999999998 156.24190000000002Q230.50619999999998 161.33985 228.59698749999998 165.12301250000002Q226.687775 168.90617500000002 223.6199375 171.40981250000002Q220.5521 173.91345 217.0510375 175.15267500000002Q213.549975 176.39190000000002 210.285675 176.39190000000002H200.78495V185.54000000000002Q200.78495 187.20237500000002 200.472625 188.74888750000002Q200.1603 190.2954 198.7548375 191.2777125Q197.349375 192.260025 193.984325 192.260025ZM200.78495 162.881325H210.366275Q211.776775 162.881325 213.3232875 162.236525Q214.8698 161.591725 215.97301249999998 160.1056625Q217.076225 158.61960000000002 217.076225 156.151225Q217.076225 154.17652500000003 216.1845875 152.665275Q215.29295 151.15402500000002 213.7766625 150.29765000000003Q212.260375 149.44127500000002 210.285675 149.44127500000002H200.78495Z"/><path fill="#2db7fa" fill-opacity="1" d="M243.1126 192.260025Q239.82815 192.260025 238.4226875 191.2777125Q237.017225 190.2954 236.7099375 188.70858750000002Q236.40265 187.121775 236.40265 185.45940000000002V142.64065000000002Q236.40265 140.98835000000003 236.7200125 139.44687500000003Q237.037375 137.90540000000001 238.4428375 136.91805Q239.8483 135.9307 243.1932 135.9307H259.65575Q262.869675 135.9307 266.3707375 137.16488750000002Q269.8718 138.399075 272.8943 140.92790000000002Q275.91679999999997 143.456725 277.8159375 147.2499625Q279.715075 151.0432 279.715075 156.23182500000001Q279.715075 159.78830000000002 278.6622375 162.982075Q277.6094 166.17585000000003 275.5289125 168.8003875Q273.448425 171.424925 270.45615 173.36436250000003Q267.463875 175.30380000000002 263.574925 176.29115000000002H249.90314999999998V185.54000000000002Q249.90314999999998 187.20237500000002 249.590825 188.74888750000002Q249.2785 190.2954 247.8730375 191.2777125Q246.467575 192.260025 243.1126 192.260025ZM277.014975 190.4969Q273.710375 192.96527500000002 271.7709375 192.4665625Q269.8315 191.96785 267.645225 189.015875L253.137225 168.785275L268.43107499999996 166.8408L278.6169 181.016325Q280.097925 183.17237500000002 280.4958875 184.663475Q280.89385 186.15457500000002 280.06769999999995 187.48447500000003Q279.24154999999996 188.814375 277.014975 190.4969ZM249.90314999999998 162.881325H259.95799999999997Q260.86475 162.881325 261.973 162.5337375Q263.08125 162.18615 264.0232625 161.3851875Q264.965275 160.584225 265.589925 159.30470000000003Q266.21457499999997 158.02517500000002 266.21457499999997 156.151225Q266.21457499999997 154.15637500000003 265.3330125 152.645125Q264.45145 151.13387500000002 262.9402 150.287575Q261.42895 149.44127500000002 259.49455 149.44127500000002H249.90314999999998Z"/><path fill="#2db7fa" fill-opacity="1" d="M292.40207499999997 192.33055000000002Q289.117625 192.33055000000002 287.7121625 191.3482375Q286.3067 190.365925 285.99941249999995 188.7791125Q285.692125 187.19230000000002 285.692125 185.52992500000002V142.65072500000002Q285.692125 140.98835000000003 286.00445 139.44183750000002Q286.316775 137.895325 287.7222375 136.9130125Q289.1277 135.9307 292.482675 135.9307Q295.83765 135.9307 297.20785 136.9130125Q298.57804999999996 137.895325 298.8853375 139.44183750000002Q299.19262499999996 140.98835000000003 299.19262499999996 142.73132500000003V185.610525Q299.19262499999996 187.27290000000002 298.8803 188.8194125Q298.567975 190.365925 297.1625125 191.3482375Q295.75705 192.33055000000002 292.40207499999997 192.33055000000002Z"/><path fill="#2db7fa" fill-opacity="1" d="M312.28262499999994 192.32047500000002Q309.08885 192.32047500000002 307.68842499999994 191.333125Q306.28799999999995 190.345775 305.97063749999995 188.794225Q305.65327499999995 187.24267500000002 305.65327499999995 185.51985000000002V142.469375Q305.65327499999995 140.82715000000002 305.97567499999997 139.36123750000002Q306.298075 137.895325 307.748875 136.94827500000002Q309.19967499999996 136.001225 312.47405 136.001225Q315.72827499999994 136.001225 316.92719999999997 136.79211250000003Q318.12612499999994 137.58300000000003 319.11347499999994 138.862525L340.95607499999994 168.5737V142.469375Q340.95607499999994 140.82715000000002 341.30869999999993 139.36123750000002Q341.661325 137.895325 343.071825 136.94827500000002Q344.48232499999995 136.001225 347.75669999999997 136.001225Q351.09152499999993 136.001225 352.46172499999994 136.98857500000003Q353.83192499999996 137.97592500000002 354.14424999999994 139.527475Q354.45657499999993 141.079025 354.45657499999993 142.80185V185.60045Q354.45657499999993 187.25275000000002 354.12913749999996 188.7992625Q353.8017 190.345775 352.381125 191.333125Q350.96054999999996 192.32047500000002 347.61564999999996 192.32047500000002Q345.11704999999995 192.32047500000002 343.8022625 191.9023625Q342.48747499999996 191.48425 341.560575 190.2551L319.08324999999996 160.1913V185.60045Q319.08324999999996 187.25275000000002 318.76588749999996 188.7992625Q318.44852499999996 190.345775 317.03802499999995 191.333125Q315.62752499999993 192.32047500000002 312.28262499999994 192.32047500000002Z"/><path fill="#2db7fa" fill-opacity="1" d="M403.14154999999994 135.86017500000003Q404.5923499999999 135.86017500000003 405.8517249999999 136.10197500000004Q407.1110999999999 136.34377500000002 407.9473249999999 137.5376625Q408.78354999999993 138.73155000000003 408.78354999999993 141.60292500000003Q408.78354999999993 144.39370000000002 407.9422874999999 145.62285000000003Q407.10102499999994 146.852 405.80134999999996 147.08876250000003Q404.5016749999999 147.32552500000003 403.0508749999999 147.32552500000003H391.00117499999993V185.751575Q391.00117499999993 187.41395 390.6888499999999 188.92520000000002Q390.3765249999999 190.43645 389.00632499999995 191.38350000000003Q387.63612499999994 192.33055000000002 384.2811499999999 192.33055000000002Q381.06722499999995 192.33055000000002 379.66176249999995 191.3482375Q378.25629999999995 190.365925 377.9842749999999 188.8496375Q377.7122499999999 187.33335 377.7122499999999 185.670975V147.32552500000003H365.56179999999995Q364.1815249999999 147.32552500000003 362.88184999999993 147.0535Q361.58217499999995 146.781475 360.7409124999999 145.5875875Q359.89964999999995 144.39370000000002 359.89964999999995 141.53240000000002Q359.89964999999995 138.73155000000003 360.73587499999996 137.5376625Q361.5720999999999 136.34377500000002 362.9070374999999 136.10197500000004Q364.2419749999999 135.86017500000003 365.6121749999999 135.86017500000003Z"/><path fill="#2db7fa" fill-opacity="1" d="M420.7350749999999 192.33055000000002Q417.4506249999999 192.33055000000002 416.0451624999999 191.3482375Q414.6396999999999 190.365925 414.3324124999999 188.7791125Q414.0251249999999 187.19230000000002 414.0251249999999 185.52992500000002V142.65072500000002Q414.0251249999999 140.98835000000003 414.3374499999999 139.44183750000002Q414.6497749999999 137.895325 416.0552374999999 136.9130125Q417.4606999999999 135.9307 420.8156749999999 135.9307Q424.1706499999999 135.9307 425.54084999999986 136.9130125Q426.9110499999999 137.895325 427.21833749999985 139.44183750000002Q427.5256249999999 140.98835000000003 427.5256249999999 142.73132500000003V185.610525Q427.5256249999999 187.27290000000002 427.2132999999999 188.8194125Q426.9009749999999 190.365925 425.4955124999999 191.3482375Q424.0900499999999 192.33055000000002 420.7350749999999 192.33055000000002Z"/><path fill="#2db7fa" fill-opacity="1" d="M441.56267499999984 192.33055000000002Q438.27822499999985 192.33055000000002 436.87276249999985 191.3482375Q435.46729999999985 190.365925 435.1600124999999 188.78415Q434.85272499999985 187.20237500000002 434.85272499999985 185.54000000000002V142.64065000000002Q434.85272499999985 140.978275 435.16504999999984 139.4317625Q435.4773749999999 137.88525 436.8828374999999 136.90797500000002Q438.2882999999999 135.9307 441.64327499999985 135.9307Q444.99824999999987 135.9307 446.3684499999999 136.9130125Q447.7386499999999 137.895325 448.0509749999999 139.44183750000002Q448.36329999999987 140.98835000000003 448.36329999999987 142.72125V155.23440000000002L464.0097749999999 138.20765Q465.72252499999985 136.36392500000002 467.1985124999999 135.63852500000002Q468.67449999999985 134.913125 470.22101249999986 135.36650000000003Q471.76752499999986 135.81987500000002 473.60117499999984 137.593075Q476.61359999999985 140.33347500000002 476.67404999999985 142.39885Q476.73449999999985 144.464225 474.20567499999987 147.11395000000002L457.0378749999999 164.181L474.3265749999999 181.08685Q477.06697499999984 183.80710000000002 476.9007374999999 185.97826250000003Q476.73449999999985 188.149425 473.72207499999985 190.67825000000002Q471.5357999999999 192.45145 469.9892874999999 192.90482500000002Q468.44277499999987 193.3582 467.10783749999985 192.59753750000002Q465.7728999999999 191.83687500000002 464.1306749999999 189.922625L448.36329999999987 172.85557500000002V185.6206Q448.36329999999987 187.28297500000002 448.0509749999999 188.82948750000003Q447.7386499999999 190.376 446.3331874999999 191.353275Q444.9277249999999 192.33055000000002 441.56267499999984 192.33055000000002Z"/><path fill="#2db7fa" fill-opacity="1" d="M535.7967249999998 182.94065Q536.9049749999998 185.147075 536.9805374999999 186.7036625Q537.0560999999999 188.26025 536.0234125 189.44406250000003Q534.9907249999999 190.62787500000002 532.7036999999999 191.80665000000002Q529.1572999999999 193.49925000000002 527.2279374999998 192.844375Q525.2985749999999 192.1895 523.6059749999998 188.592725L508.83602499999984 158.06547500000002L494.2171999999999 188.6431Q492.4540749999999 192.1089 490.52471249999985 192.7587375Q488.5953499999999 193.408575 485.1093999999999 191.72605000000001Q482.82237499999985 190.62787500000002 481.75946249999987 189.4339875Q480.6965499999999 188.2401 480.78722499999986 186.658325Q480.87789999999984 185.07655 481.99622499999987 182.829825L502.7104249999999 139.849875Q503.59702499999986 138.07667500000002 505.3299249999999 137.0036875Q507.06282499999986 135.9307 508.91662499999984 135.9307Q510.24652499999985 135.9307 511.39003749999983 136.4092625Q512.5335499999999 136.88782500000002 513.4906749999999 137.774425Q514.4477999999999 138.66102500000002 515.0422249999999 139.930475ZM495.69822499999987 179.908075 501.25962499999986 168.40242500000002H516.5030999999999L522.0544249999998 179.908075Z"/><path fill="#2db7fa" fill-opacity="1" d="M603.4353499999999 135.86017500000003Q604.8861499999998 135.86017500000003 606.1455249999999 136.10197500000004Q607.4048999999999 136.34377500000002 608.2411249999998 137.5376625Q609.0773499999998 138.73155000000003 609.0773499999998 141.60292500000003Q609.0773499999998 144.39370000000002 608.2360874999998 145.62285000000003Q607.3948249999999 146.852 606.0951499999999 147.08876250000003Q604.7954749999999 147.32552500000003 603.3446749999998 147.32552500000003H591.2949749999998V185.751575Q591.2949749999998 187.41395 590.9826499999998 188.92520000000002Q590.6703249999998 190.43645 589.3001249999998 191.38350000000003Q587.9299249999998 192.33055000000002 584.5749499999998 192.33055000000002Q581.3610249999998 192.33055000000002 579.9555624999998 191.3482375Q578.5500999999998 190.365925 578.2780749999998 188.8496375Q578.0060499999998 187.33335 578.0060499999998 185.670975V147.32552500000003H565.8555999999999Q564.4753249999999 147.32552500000003 563.1756499999999 147.0535Q561.8759749999998 146.781475 561.0347124999998 145.5875875Q560.1934499999999 144.39370000000002 560.1934499999999 141.53240000000002Q560.1934499999999 138.73155000000003 561.0296749999999 137.5376625Q561.8658999999999 136.34377500000002 563.2008374999998 136.10197500000004Q564.5357749999998 135.86017500000003 565.9059749999999 135.86017500000003Z"/><path fill="#2db7fa" fill-opacity="1" d="M641.0881999999998 193.1567Q635.2372083333331 193.1567 630.1278916666665 190.94523750000002Q625.0185749999998 188.733775 621.1548124999998 184.79445Q617.2910499999998 180.85512500000002 615.0846249999997 175.67931599264708Q612.8781999999998 170.50350698529414 612.8781999999998 164.58829669117648Q612.8781999999998 158.508775 615.0120010416665 153.189351754386Q617.1458020833331 147.86992850877195 620.9209885416665 143.859901754386Q624.6961749999998 139.849875 629.703256992337 137.593075Q634.7103389846741 135.336275 640.4208953065132 135.336275Q646.2969749999999 135.336275 651.4075374074073 137.5396775Q656.5180998148146 139.74308000000002 660.3510216203701 143.70104375000003Q664.1839434259257 147.65900750000003 666.3682967129628 152.92269125Q668.5526499999999 158.186375 668.5526499999999 164.28459166666667Q668.5526499999999 170.21799166666668 666.4217874999998 175.45092083333333Q664.2909249999998 180.68385 660.491509433962 184.678422875817Q656.6920938679243 188.672995751634 651.736334433962 190.914847875817Q646.7805749999998 193.1567 641.0881999999998 193.1567ZM640.6757810465115 179.646125Q643.6573249999998 179.646125 646.2818624999998 178.46735Q648.9063999999998 177.288575 650.8760624999998 175.22320000000002Q652.8457249999998 173.157825 653.9438999999998 170.33504966960353Q655.0420749999998 167.51227433920707 655.0420749999998 164.2634197136564Q655.0420749999998 161.067825 653.9086374999998 158.27705Q652.7751999999998 155.486275 650.8004999999998 153.350375Q648.8257999999998 151.21447500000002 646.2458467289719 150.0306625Q643.6658934579438 148.84685000000002 640.7247467289718 148.84685000000002Q637.7835999999999 148.84685000000002 635.1943249999998 150.0306625Q632.6050499999998 151.21447500000002 630.6303499999998 153.34533750000003Q628.6556499999998 155.4762 627.5222124999998 158.28237472587722Q626.3887749999998 161.0885494517544 626.3887749999998 164.28811315789474Q626.3887749999998 167.435225 627.5284254166664 170.24002916666666Q628.6680758333331 173.04483333333334 630.6365629166664 175.1616666666667Q632.6050499999998 177.2785 635.1753465116277 178.4623125Q637.7456430232556 179.646125 640.6757810465115 179.646125Z"/><path fill="#2db7fa" fill-opacity="1" d="M700.3619999999997 193.1567Q694.511008333333 193.1567 689.4016916666665 190.94523750000002Q684.2923749999998 188.733775 680.4286124999998 184.79445Q676.5648499999998 180.85512500000002 674.3584249999997 175.67931599264708Q672.1519999999997 170.50350698529414 672.1519999999997 164.58829669117648Q672.1519999999997 158.508775 674.2858010416664 153.189351754386Q676.4196020833331 147.86992850877195 680.1947885416664 143.859901754386Q683.9699749999997 139.849875 688.9770569923369 137.593075Q693.984138984674 135.336275 699.6946953065132 135.336275Q705.5707749999998 135.336275 710.6813374074072 137.5396775Q715.7918998148145 139.74308000000002 719.6248216203701 143.70104375000003Q723.4577434259256 147.65900750000003 725.6420967129627 152.92269125Q727.8264499999998 158.186375 727.8264499999998 164.28459166666667Q727.8264499999998 170.21799166666668 725.6955874999998 175.45092083333333Q723.5647249999997 180.68385 719.765309433962 184.678422875817Q715.9658938679243 188.672995751634 711.010134433962 190.914847875817Q706.0543749999997 193.1567 700.3619999999997 193.1567ZM699.9495810465114 179.646125Q702.9311249999997 179.646125 705.5556624999997 178.46735Q708.1801999999998 177.288575 710.1498624999997 175.22320000000002Q712.1195249999997 173.157825 713.2176999999997 170.33504966960353Q714.3158749999998 167.51227433920707 714.3158749999998 164.2634197136564Q714.3158749999998 161.067825 713.1824374999998 158.27705Q712.0489999999998 155.486275 710.0742999999998 153.350375Q708.0995999999998 151.21447500000002 705.5196467289718 150.0306625Q702.9396934579437 148.84685000000002 699.9985467289717 148.84685000000002Q697.0573999999998 148.84685000000002 694.4681249999998 150.0306625Q691.8788499999997 151.21447500000002 689.9041499999997 153.34533750000003Q687.9294499999997 155.4762 686.7960124999997 158.28237472587722Q685.6625749999997 161.0885494517544 685.6625749999997 164.28811315789474Q685.6625749999997 167.435225 686.8022254166664 170.24002916666666Q687.941875833333 173.04483333333334 689.9103629166664 175.1616666666667Q691.8788499999997 177.2785 694.4491465116276 178.4623125Q697.0194430232556 179.646125 699.9495810465114 179.646125Z"/><path fill="#2db7fa" fill-opacity="1" d="M741.1078749999997 192.33055000000002Q737.8133499999997 192.33055000000002 736.4028499999997 191.3482375Q734.9923499999996 190.365925 734.6800249999997 188.78415Q734.3676999999997 187.20237500000002 734.3676999999997 185.54000000000002V142.66080000000002Q734.3676999999997 140.98835000000003 734.6749874999997 139.44183750000002Q734.9822749999997 137.895325 736.3877374999997 136.9130125Q737.7931999999997 135.9307 741.1481749999997 135.9307Q744.5031499999997 135.9307 745.8733499999996 136.9130125Q747.2435499999997 137.895325 747.5558749999997 139.44183750000002Q747.8681999999997 140.98835000000003 747.8681999999997 142.72125V180.72415H768.7536749999997Q770.2044749999997 180.72415 771.5041499999998 180.9609125Q772.8038249999997 181.197675 773.6450874999997 182.426825Q774.4863499999997 183.655975 774.4863499999997 186.517275Q774.4863499999997 189.30805 773.6148624999996 190.5422375Q772.7433749999997 191.77642500000002 771.4487374999997 192.05348750000002Q770.1540999999997 192.33055000000002 768.7032999999997 192.33055000000002Z"/><path fill="#2db7fa" fill-opacity="1" d="M798.6789999999996 193.126475Q794.0747249999997 193.126475 790.7701249999998 191.998075Q787.4655249999997 190.869675 785.2792499999997 189.2879Q783.0929749999997 187.70612500000001 781.8688624999998 186.31073750000002Q780.6447499999997 184.91535000000002 780.2820499999997 184.38137500000002Q778.8010249999996 182.49735 778.4534374999996 181.0112875Q778.1058499999997 179.525225 778.8715499999996 178.0442Q779.6372499999997 176.563175 781.5111999999997 174.80005Q783.2642499999997 173.157825 784.9064749999998 172.996625Q786.5486999999997 172.83542500000001 788.1355124999998 173.76232500000003Q789.7223249999997 174.68922500000002 791.2134249999997 176.43220000000002Q793.1578999999997 178.70915000000002 794.7850124999998 179.55545Q796.4121249999997 180.40175000000002 798.3565999999997 180.40175000000002Q800.7745999999997 180.40175000000002 802.3865999999997 179.80228750000003Q803.9985999999997 179.20282500000002 804.8096374999997 177.9636Q805.6206749999997 176.724375 805.6206749999997 174.789975Q805.6206749999997 173.218275 804.2655874999997 172.2863375Q802.9104999999997 171.3544 800.6990374999997 170.679375Q798.4875749999997 170.00435000000002 795.7622874999997 169.27895Q793.0369999999997 168.55355 790.3570499999997 167.455375Q788.6543749999997 166.8005 787.0272624999998 165.843375Q785.4001499999997 164.88625000000002 783.9846124999997 163.647025Q782.5690749999997 162.4078 781.5313499999997 160.69505Q780.4936249999997 158.9823 779.9243874999997 156.80610000000001Q779.3551499999996 154.62990000000002 779.3551499999996 151.85927500000003Q779.3551499999996 147.023275 781.7630749999996 143.2401125Q784.1709999999997 139.45695 788.4075374999998 137.2555625Q792.6440749999997 135.05417500000001 798.0543499999997 135.05417500000001Q801.8425499999997 135.05417500000001 804.6131749999997 135.68890000000002Q807.3837999999997 136.32362500000002 809.2174499999996 137.21526250000002Q811.0510999999997 138.10690000000002 812.0837874999997 138.91290000000004Q813.1164749999997 139.71890000000002 813.4388749999997 140.071525Q815.8971749999997 142.3384 816.1288999999997 143.95543750000002Q816.3606249999997 145.572475 814.3153999999997 148.51437500000003Q812.0787499999997 151.64770000000001 809.9327749999997 152.03055Q807.7867999999996 152.41340000000002 804.9960249999997 150.59990000000002Q804.2000999999997 149.904725 803.3890624999997 149.239775Q802.5780249999997 148.574825 801.3690249999997 148.1416Q800.1600249999997 147.70837500000002 797.9737499999997 147.70837500000002Q796.9561749999997 147.70837500000002 795.9839374999997 148.030775Q795.0116999999997 148.35317500000002 794.3215624999997 148.89722500000002Q793.6314249999997 149.44127500000002 793.2082749999997 150.227125Q792.7851249999997 151.012975 792.7851249999997 151.93987500000003Q792.7851249999997 153.72315 794.0495374999996 154.75080000000003Q795.3139499999996 155.77845000000002 797.4196249999997 156.35776250000004Q799.5252999999997 156.93707500000002 802.0793124999997 157.48112500000002Q804.6333249999997 158.02517500000002 807.2830499999997 158.831175Q809.5801499999997 159.5868 811.7311624999998 160.73535Q813.8821749999997 161.8839 815.5344749999997 163.66717500000001Q817.1867749999997 165.45045000000002 818.1892374999996 168.0901Q819.1916999999996 170.72975000000002 819.1916999999996 174.54817500000001Q819.1916999999996 179.585675 817.2522624999997 183.1572625Q815.3128249999996 186.72885000000002 812.1996499999997 188.91512500000002Q809.0864749999997 191.1014 805.5148874999998 192.11393750000002Q801.9432999999997 193.126475 798.6789999999996 193.126475Z"/><g transform="matrix(1, 0, 0, 1, 495.80, 201)"><g fill="#f2f6fc" fill-opacity="1"><g transform="translate(0.688961, 32.726411)"><g><path d="M 1.296875 -20.90625 C 1.296875 -21.394531 1.3125 -21.765625 1.34375 -22.015625 C 1.375 -22.265625 1.476562 -22.550781 1.65625 -22.875 C 1.957031 -23.457031 2.800781 -23.75 4.1875 -23.75 C 5.695312 -23.75 6.59375 -23.351562 6.875 -22.5625 C 6.976562 -22.1875 7.03125 -21.625 7.03125 -20.875 L 7.03125 -2.859375 C 7.03125 -2.335938 7.015625 -1.957031 6.984375 -1.71875 C 6.953125 -1.476562 6.847656 -1.195312 6.671875 -0.875 C 6.367188 -0.289062 5.523438 0 4.140625 0 C 2.628906 0 1.742188 -0.410156 1.484375 -1.234375 C 1.359375 -1.578125 1.296875 -2.128906 1.296875 -2.890625 Z M 1.296875 -20.90625 "/></g></g></g><g fill="#f2f6fc" fill-opacity="1"><g transform="translate(9.013315, 32.726411)"><g><path d="M 6.875 -14.8125 C 7.882812 -16.34375 9.101562 -17.109375 10.53125 -17.109375 C 12.738281 -17.109375 14.378906 -16.171875 15.453125 -14.296875 C 15.691406 -14.617188 15.976562 -14.957031 16.3125 -15.3125 C 16.644531 -15.664062 17.175781 -16.050781 17.90625 -16.46875 C 18.644531 -16.894531 19.40625 -17.109375 20.1875 -17.109375 C 21.914062 -17.109375 23.363281 -16.441406 24.53125 -15.109375 C 25.695312 -13.785156 26.28125 -11.585938 26.28125 -8.515625 L 26.28125 -2.859375 C 26.28125 -2.359375 26.265625 -1.984375 26.234375 -1.734375 C 26.203125 -1.484375 26.097656 -1.195312 25.921875 -0.875 C 25.640625 -0.289062 24.8125 0 23.4375 0 C 22.070312 0 21.238281 -0.300781 20.9375 -0.90625 C 20.78125 -1.226562 20.6875 -1.515625 20.65625 -1.765625 C 20.625 -2.015625 20.609375 -2.390625 20.609375 -2.890625 L 20.609375 -8.5625 C 20.609375 -10.4375 19.9375 -11.375 18.59375 -11.375 C 17.84375 -11.375 17.332031 -11.125 17.0625 -10.625 C 16.789062 -10.132812 16.65625 -9.429688 16.65625 -8.515625 L 16.65625 -2.859375 C 16.65625 -2.335938 16.640625 -1.957031 16.609375 -1.71875 C 16.578125 -1.476562 16.472656 -1.195312 16.296875 -0.875 C 15.992188 -0.289062 15.148438 0 13.765625 0 C 12.410156 0 11.582031 -0.300781 11.28125 -0.90625 C 11.125 -1.226562 11.03125 -1.515625 11 -1.765625 C 10.96875 -2.015625 10.953125 -2.390625 10.953125 -2.890625 L 10.953125 -8.5625 C 10.953125 -10.4375 10.28125 -11.375 8.9375 -11.375 C 7.644531 -11.375 7 -10.4375 7 -8.5625 L 7 -2.8125 C 7 -2.320312 6.984375 -1.953125 6.953125 -1.703125 C 6.921875 -1.453125 6.816406 -1.164062 6.640625 -0.84375 C 6.316406 -0.28125 5.472656 0 4.109375 0 C 2.753906 0 1.925781 -0.289062 1.625 -0.875 C 1.46875 -1.195312 1.375 -1.476562 1.34375 -1.71875 C 1.3125 -1.957031 1.296875 -2.335938 1.296875 -2.859375 L 1.296875 -14.265625 C 1.296875 -14.753906 1.3125 -15.125 1.34375 -15.375 C 1.375 -15.625 1.476562 -15.898438 1.65625 -16.203125 C 1.976562 -16.785156 2.742188 -17.078125 3.953125 -17.078125 C 5.160156 -17.078125 5.945312 -16.878906 6.3125 -16.484375 C 6.6875 -16.097656 6.875 -15.539062 6.875 -14.8125 Z M 6.875 -14.8125 "/></g></g></g><g fill="#f2f6fc" fill-opacity="1"><g transform="translate(36.577632, 32.726411)"><g><path d="M 1.296875 4.640625 L 1.296875 -14.296875 C 1.296875 -14.785156 1.3125 -15.148438 1.34375 -15.390625 C 1.375 -15.628906 1.46875 -15.898438 1.625 -16.203125 C 1.925781 -16.785156 2.648438 -17.078125 3.796875 -17.078125 C 4.941406 -17.078125 5.710938 -16.929688 6.109375 -16.640625 C 6.503906 -16.347656 6.738281 -15.921875 6.8125 -15.359375 C 7.625 -16.484375 8.910156 -17.046875 10.671875 -17.046875 C 12.429688 -17.046875 14.097656 -16.210938 15.671875 -14.546875 C 17.253906 -12.890625 18.046875 -10.957031 18.046875 -8.75 C 18.046875 -6.539062 17.257812 -4.601562 15.6875 -2.9375 C 14.125 -1.28125 12.457031 -0.453125 10.6875 -0.453125 C 8.914062 -0.453125 7.632812 -0.945312 6.84375 -1.9375 L 6.84375 4.609375 C 6.84375 5.097656 6.820312 5.460938 6.78125 5.703125 C 6.75 5.941406 6.648438 6.21875 6.484375 6.53125 C 6.328125 6.84375 6.054688 7.0625 5.671875 7.1875 C 5.285156 7.320312 4.753906 7.390625 4.078125 7.390625 C 3.410156 7.390625 2.875 7.320312 2.46875 7.1875 C 2.070312 7.0625 1.789062 6.847656 1.625 6.546875 C 1.46875 6.242188 1.375 5.972656 1.34375 5.734375 C 1.3125 5.492188 1.296875 5.128906 1.296875 4.640625 Z M 7.703125 -10.625 C 7.210938 -10.039062 6.96875 -9.40625 6.96875 -8.71875 C 6.96875 -8.03125 7.21875 -7.398438 7.71875 -6.828125 C 8.226562 -6.253906 8.878906 -5.96875 9.671875 -5.96875 C 10.460938 -5.96875 11.132812 -6.242188 11.6875 -6.796875 C 12.238281 -7.359375 12.515625 -7.992188 12.515625 -8.703125 C 12.515625 -9.421875 12.253906 -10.066406 11.734375 -10.640625 C 11.210938 -11.210938 10.535156 -11.5 9.703125 -11.5 C 8.867188 -11.5 8.203125 -11.207031 7.703125 -10.625 Z M 7.703125 -10.625 "/></g></g></g><g fill="#f2f6fc" fill-opacity="1"><g transform="translate(55.428897, 32.726411)"><g><path d="M 12.890625 -16.875 C 13.304688 -16.75 13.648438 -16.53125 13.921875 -16.21875 C 14.191406 -15.90625 14.328125 -15.398438 14.328125 -14.703125 C 14.328125 -14.015625 14.117188 -13.257812 13.703125 -12.4375 C 13.296875 -11.625 12.703125 -11.21875 11.921875 -11.21875 C 11.535156 -11.21875 11.160156 -11.300781 10.796875 -11.46875 C 10.441406 -11.644531 9.972656 -11.734375 9.390625 -11.734375 C 8.804688 -11.734375 8.257812 -11.523438 7.75 -11.109375 C 7.25 -10.703125 7 -10.207031 7 -9.625 L 7 -2.8125 C 7 -2.320312 6.984375 -1.953125 6.953125 -1.703125 C 6.921875 -1.453125 6.816406 -1.164062 6.640625 -0.84375 C 6.316406 -0.28125 5.472656 0 4.109375 0 C 3.078125 0 2.332031 -0.179688 1.875 -0.546875 C 1.53125 -0.847656 1.335938 -1.3125 1.296875 -1.9375 C 1.296875 -2.15625 1.296875 -2.472656 1.296875 -2.890625 L 1.296875 -14.265625 C 1.296875 -14.753906 1.3125 -15.125 1.34375 -15.375 C 1.375 -15.625 1.46875 -15.898438 1.625 -16.203125 C 1.925781 -16.785156 2.765625 -17.078125 4.140625 -17.078125 C 5.441406 -17.078125 6.253906 -16.828125 6.578125 -16.328125 C 6.816406 -15.984375 6.9375 -15.628906 6.9375 -15.265625 C 7.039062 -15.410156 7.195312 -15.59375 7.40625 -15.8125 C 7.613281 -16.03125 8.050781 -16.320312 8.71875 -16.6875 C 9.382812 -17.050781 9.972656 -17.234375 10.484375 -17.234375 C 10.992188 -17.234375 11.421875 -17.207031 11.765625 -17.15625 C 12.109375 -17.101562 12.484375 -17.007812 12.890625 -16.875 Z M 12.890625 -16.875 "/></g></g></g><g fill="#f2f6fc" fill-opacity="1"><g transform="translate(70.231357, 32.726411)"><g><path d="M 1.296875 -14.21875 C 1.296875 -14.71875 1.3125 -15.09375 1.34375 -15.34375 C 1.375 -15.59375 1.46875 -15.878906 1.625 -16.203125 C 1.925781 -16.765625 2.765625 -17.046875 4.140625 -17.046875 C 5.179688 -17.046875 5.921875 -16.863281 6.359375 -16.5 C 6.722656 -16.195312 6.914062 -15.726562 6.9375 -15.09375 C 6.957031 -14.882812 6.96875 -14.570312 6.96875 -14.15625 L 6.96875 -2.8125 C 6.96875 -2.320312 6.953125 -1.953125 6.921875 -1.703125 C 6.890625 -1.453125 6.785156 -1.164062 6.609375 -0.84375 C 6.328125 -0.28125 5.492188 0 4.109375 0 C 2.753906 0 1.925781 -0.289062 1.625 -0.875 C 1.46875 -1.195312 1.375 -1.476562 1.34375 -1.71875 C 1.3125 -1.957031 1.296875 -2.335938 1.296875 -2.859375 Z M 6.625 -20.234375 C 6.46875 -19.921875 6.179688 -19.695312 5.765625 -19.5625 C 5.359375 -19.4375 4.8125 -19.375 4.125 -19.375 C 3.445312 -19.375 2.898438 -19.4375 2.484375 -19.5625 C 2.078125 -19.695312 1.789062 -19.925781 1.625 -20.25 C 1.46875 -20.570312 1.375 -20.859375 1.34375 -21.109375 C 1.3125 -21.359375 1.296875 -21.726562 1.296875 -22.21875 C 1.296875 -22.71875 1.3125 -23.09375 1.34375 -23.34375 C 1.375 -23.59375 1.46875 -23.867188 1.625 -24.171875 C 1.925781 -24.753906 2.765625 -25.046875 4.140625 -25.046875 C 5.503906 -25.046875 6.328125 -24.753906 6.609375 -24.171875 C 6.785156 -23.847656 6.890625 -23.5625 6.921875 -23.3125 C 6.953125 -23.0625 6.96875 -22.6875 6.96875 -22.1875 C 6.96875 -21.695312 6.953125 -21.328125 6.921875 -21.078125 C 6.890625 -20.828125 6.789062 -20.546875 6.625 -20.234375 Z M 6.625 -20.234375 "/></g></g></g><g fill="#f2f6fc" fill-opacity="1"><g transform="translate(78.490936, 32.726411)"><g><path d="M 6.875 -14.8125 C 7.882812 -16.34375 9.101562 -17.109375 10.53125 -17.109375 C 12.738281 -17.109375 14.378906 -16.171875 15.453125 -14.296875 C 15.691406 -14.617188 15.976562 -14.957031 16.3125 -15.3125 C 16.644531 -15.664062 17.175781 -16.050781 17.90625 -16.46875 C 18.644531 -16.894531 19.40625 -17.109375 20.1875 -17.109375 C 21.914062 -17.109375 23.363281 -16.441406 24.53125 -15.109375 C 25.695312 -13.785156 26.28125 -11.585938 26.28125 -8.515625 L 26.28125 -2.859375 C 26.28125 -2.359375 26.265625 -1.984375 26.234375 -1.734375 C 26.203125 -1.484375 26.097656 -1.195312 25.921875 -0.875 C 25.640625 -0.289062 24.8125 0 23.4375 0 C 22.070312 0 21.238281 -0.300781 20.9375 -0.90625 C 20.78125 -1.226562 20.6875 -1.515625 20.65625 -1.765625 C 20.625 -2.015625 20.609375 -2.390625 20.609375 -2.890625 L 20.609375 -8.5625 C 20.609375 -10.4375 19.9375 -11.375 18.59375 -11.375 C 17.84375 -11.375 17.332031 -11.125 17.0625 -10.625 C 16.789062 -10.132812 16.65625 -9.429688 16.65625 -8.515625 L 16.65625 -2.859375 C 16.65625 -2.335938 16.640625 -1.957031 16.609375 -1.71875 C 16.578125 -1.476562 16.472656 -1.195312 16.296875 -0.875 C 15.992188 -0.289062 15.148438 0 13.765625 0 C 12.410156 0 11.582031 -0.300781 11.28125 -0.90625 C 11.125 -1.226562 11.03125 -1.515625 11 -1.765625 C 10.96875 -2.015625 10.953125 -2.390625 10.953125 -2.890625 L 10.953125 -8.5625 C 10.953125 -10.4375 10.28125 -11.375 8.9375 -11.375 C 7.644531 -11.375 7 -10.4375 7 -8.5625 L 7 -2.8125 C 7 -2.320312 6.984375 -1.953125 6.953125 -1.703125 C 6.921875 -1.453125 6.816406 -1.164062 6.640625 -0.84375 C 6.316406 -0.28125 5.472656 0 4.109375 0 C 2.753906 0 1.925781 -0.289062 1.625 -0.875 C 1.46875 -1.195312 1.375 -1.476562 1.34375 -1.71875 C 1.3125 -1.957031 1.296875 -2.335938 1.296875 -2.859375 L 1.296875 -14.265625 C 1.296875 -14.753906 1.3125 -15.125 1.34375 -15.375 C 1.375 -15.625 1.476562 -15.898438 1.65625 -16.203125 C 1.976562 -16.785156 2.742188 -17.078125 3.953125 -17.078125 C 5.160156 -17.078125 5.945312 -16.878906 6.3125 -16.484375 C 6.6875 -16.097656 6.875 -15.539062 6.875 -14.8125 Z M 6.875 -14.8125 "/></g></g></g><g fill="#f2f6fc" fill-opacity="1"><g transform="translate(106.055253, 32.726411)"><g><path d="M 1.296875 -14.21875 C 1.296875 -14.71875 1.3125 -15.09375 1.34375 -15.34375 C 1.375 -15.59375 1.46875 -15.878906 1.625 -16.203125 C 1.925781 -16.765625 2.765625 -17.046875 4.140625 -17.046875 C 5.179688 -17.046875 5.921875 -16.863281 6.359375 -16.5 C 6.722656 -16.195312 6.914062 -15.726562 6.9375 -15.09375 C 6.957031 -14.882812 6.96875 -14.570312 6.96875 -14.15625 L 6.96875 -2.8125 C 6.96875 -2.320312 6.953125 -1.953125 6.921875 -1.703125 C 6.890625 -1.453125 6.785156 -1.164062 6.609375 -0.84375 C 6.328125 -0.28125 5.492188 0 4.109375 0 C 2.753906 0 1.925781 -0.289062 1.625 -0.875 C 1.46875 -1.195312 1.375 -1.476562 1.34375 -1.71875 C 1.3125 -1.957031 1.296875 -2.335938 1.296875 -2.859375 Z M 6.625 -20.234375 C 6.46875 -19.921875 6.179688 -19.695312 5.765625 -19.5625 C 5.359375 -19.4375 4.8125 -19.375 4.125 -19.375 C 3.445312 -19.375 2.898438 -19.4375 2.484375 -19.5625 C 2.078125 -19.695312 1.789062 -19.925781 1.625 -20.25 C 1.46875 -20.570312 1.375 -20.859375 1.34375 -21.109375 C 1.3125 -21.359375 1.296875 -21.726562 1.296875 -22.21875 C 1.296875 -22.71875 1.3125 -23.09375 1.34375 -23.34375 C 1.375 -23.59375 1.46875 -23.867188 1.625 -24.171875 C 1.925781 -24.753906 2.765625 -25.046875 4.140625 -25.046875 C 5.503906 -25.046875 6.328125 -24.753906 6.609375 -24.171875 C 6.785156 -23.847656 6.890625 -23.5625 6.921875 -23.3125 C 6.953125 -23.0625 6.96875 -22.6875 6.96875 -22.1875 C 6.96875 -21.695312 6.953125 -21.328125 6.921875 -21.078125 C 6.890625 -20.828125 6.789062 -20.546875 6.625 -20.234375 Z M 6.625 -20.234375 "/></g></g></g><g fill="#f2f6fc" fill-opacity="1"><g transform="translate(114.314832, 32.726411)"><g><path d="M 6.875 -14.8125 C 7.882812 -16.34375 9.101562 -17.109375 10.53125 -17.109375 C 12.738281 -17.109375 14.378906 -16.171875 15.453125 -14.296875 C 15.691406 -14.617188 15.976562 -14.957031 16.3125 -15.3125 C 16.644531 -15.664062 17.175781 -16.050781 17.90625 -16.46875 C 18.644531 -16.894531 19.40625 -17.109375 20.1875 -17.109375 C 21.914062 -17.109375 23.363281 -16.441406 24.53125 -15.109375 C 25.695312 -13.785156 26.28125 -11.585938 26.28125 -8.515625 L 26.28125 -2.859375 C 26.28125 -2.359375 26.265625 -1.984375 26.234375 -1.734375 C 26.203125 -1.484375 26.097656 -1.195312 25.921875 -0.875 C 25.640625 -0.289062 24.8125 0 23.4375 0 C 22.070312 0 21.238281 -0.300781 20.9375 -0.90625 C 20.78125 -1.226562 20.6875 -1.515625 20.65625 -1.765625 C 20.625 -2.015625 20.609375 -2.390625 20.609375 -2.890625 L 20.609375 -8.5625 C 20.609375 -10.4375 19.9375 -11.375 18.59375 -11.375 C 17.84375 -11.375 17.332031 -11.125 17.0625 -10.625 C 16.789062 -10.132812 16.65625 -9.429688 16.65625 -8.515625 L 16.65625 -2.859375 C 16.65625 -2.335938 16.640625 -1.957031 16.609375 -1.71875 C 16.578125 -1.476562 16.472656 -1.195312 16.296875 -0.875 C 15.992188 -0.289062 15.148438 0 13.765625 0 C 12.410156 0 11.582031 -0.300781 11.28125 -0.90625 C 11.125 -1.226562 11.03125 -1.515625 11 -1.765625 C 10.96875 -2.015625 10.953125 -2.390625 10.953125 -2.890625 L 10.953125 -8.5625 C 10.953125 -10.4375 10.28125 -11.375 8.9375 -11.375 C 7.644531 -11.375 7 -10.4375 7 -8.5625 L 7 -2.8125 C 7 -2.320312 6.984375 -1.953125 6.953125 -1.703125 C 6.921875 -1.453125 6.816406 -1.164062 6.640625 -0.84375 C 6.316406 -0.28125 5.472656 0 4.109375 0 C 2.753906 0 1.925781 -0.289062 1.625 -0.875 C 1.46875 -1.195312 1.375 -1.476562 1.34375 -1.71875 C 1.3125 -1.957031 1.296875 -2.335938 1.296875 -2.859375 L 1.296875 -14.265625 C 1.296875 -14.753906 1.3125 -15.125 1.34375 -15.375 C 1.375 -15.625 1.476562 -15.898438 1.65625 -16.203125 C 1.976562 -16.785156 2.742188 -17.078125 3.953125 -17.078125 C 5.160156 -17.078125 5.945312 -16.878906 6.3125 -16.484375 C 6.6875 -16.097656 6.875 -15.539062 6.875 -14.8125 Z M 6.875 -14.8125 "/></g></g></g><g fill="#f2f6fc" fill-opacity="1"><g transform="translate(141.879149, 32.726411)"><g><path d="M 0.8125 -8.515625 C 0.8125 -11.109375 1.71875 -13.25 3.53125 -14.9375 C 5.34375 -16.625 7.414062 -17.46875 9.75 -17.46875 C 12.082031 -17.46875 14.144531 -16.628906 15.9375 -14.953125 C 17.738281 -13.273438 18.640625 -11.144531 18.640625 -8.5625 C 18.640625 -6.757812 18.171875 -5.160156 17.234375 -3.765625 C 16.304688 -2.378906 15.175781 -1.351562 13.84375 -0.6875 C 12.519531 -0.03125 11.144531 0.296875 9.71875 0.296875 C 8.289062 0.296875 6.90625 -0.0507812 5.5625 -0.75 C 4.226562 -1.457031 3.101562 -2.5 2.1875 -3.875 C 1.269531 -5.25 0.8125 -6.796875 0.8125 -8.515625 Z M 7.578125 -6.203125 C 8.273438 -5.671875 8.976562 -5.40625 9.6875 -5.40625 C 10.40625 -5.40625 11.117188 -5.675781 11.828125 -6.21875 C 12.535156 -6.757812 12.890625 -7.554688 12.890625 -8.609375 C 12.890625 -9.671875 12.554688 -10.460938 11.890625 -10.984375 C 11.222656 -11.503906 10.5 -11.765625 9.71875 -11.765625 C 8.945312 -11.765625 8.222656 -11.492188 7.546875 -10.953125 C 6.878906 -10.410156 6.546875 -9.613281 6.546875 -8.5625 C 6.546875 -7.519531 6.890625 -6.734375 7.578125 -6.203125 Z M 7.578125 -6.203125 "/></g></g></g><g fill="#f2f6fc" fill-opacity="1"><g transform="translate(161.313453, 32.726411)"><g><path d="M 1.421875 -1.515625 C 1.015625 -1.773438 0.8125 -2.1875 0.8125 -2.75 C 0.8125 -3.3125 1.222656 -4.164062 2.046875 -5.3125 C 2.273438 -5.675781 2.65625 -5.859375 3.1875 -5.859375 C 3.71875 -5.859375 4.4375 -5.59375 5.34375 -5.0625 C 6.25 -4.539062 7.070312 -4.28125 7.8125 -4.28125 C 9.125 -4.28125 9.78125 -4.539062 9.78125 -5.0625 C 9.78125 -5.46875 9.054688 -5.769531 7.609375 -5.96875 C 6.253906 -6.15625 4.90625 -6.660156 3.5625 -7.484375 C 2.9375 -7.867188 2.414062 -8.476562 2 -9.3125 C 1.59375 -10.144531 1.390625 -11.132812 1.390625 -12.28125 C 1.390625 -15.695312 3.734375 -17.40625 8.421875 -17.40625 C 9.953125 -17.40625 11.53125 -17.035156 13.15625 -16.296875 C 13.914062 -15.953125 14.296875 -15.519531 14.296875 -15 C 14.296875 -14.476562 14.054688 -13.835938 13.578125 -13.078125 C 13.097656 -12.328125 12.613281 -11.953125 12.125 -11.953125 C 11.863281 -11.953125 11.378906 -12.113281 10.671875 -12.4375 C 9.972656 -12.769531 9.210938 -12.9375 8.390625 -12.9375 C 7.117188 -12.9375 6.484375 -12.695312 6.484375 -12.21875 C 6.484375 -11.570312 7.21875 -11.148438 8.6875 -10.953125 C 10.113281 -10.796875 11.492188 -10.382812 12.828125 -9.71875 C 13.453125 -9.414062 13.972656 -8.890625 14.390625 -8.140625 C 14.816406 -7.398438 15.03125 -6.46875 15.03125 -5.34375 C 15.03125 -4.21875 14.816406 -3.257812 14.390625 -2.46875 C 13.972656 -1.6875 13.390625 -1.101562 12.640625 -0.71875 C 11.253906 -0.0390625 9.519531 0.296875 7.4375 0.296875 C 5.351562 0.296875 3.347656 -0.304688 1.421875 -1.515625 Z M 1.421875 -1.515625 "/></g></g></g><g fill="#f2f6fc" fill-opacity="1"><g transform="translate(177.152409, 32.726411)"><g/></g></g><g fill="#f2f6fc" fill-opacity="1"><g transform="translate(185.347197, 32.726411)"><g><path d="M 11.21875 -11.34375 L 9.109375 -11.46875 L 9.109375 -7 C 9.109375 -6.414062 9.195312 -5.992188 9.375 -5.734375 C 9.5625 -5.472656 9.910156 -5.34375 10.421875 -5.34375 C 10.929688 -5.34375 11.316406 -5.328125 11.578125 -5.296875 C 11.847656 -5.265625 12.132812 -5.160156 12.4375 -4.984375 C 12.9375 -4.703125 13.1875 -3.976562 13.1875 -2.8125 C 13.1875 -1.457031 12.882812 -0.628906 12.28125 -0.328125 C 11.957031 -0.171875 11.671875 -0.078125 11.421875 -0.046875 C 11.171875 -0.015625 10.8125 0 10.34375 0 C 8.09375 0 6.382812 -0.503906 5.21875 -1.515625 C 4.050781 -2.535156 3.46875 -4.253906 3.46875 -6.671875 L 3.46875 -11.46875 C 3.0625 -11.40625 2.617188 -11.375 2.140625 -11.375 C 1.660156 -11.375 1.265625 -11.554688 0.953125 -11.921875 C 0.640625 -12.285156 0.484375 -12.910156 0.484375 -13.796875 C 0.484375 -14.691406 0.535156 -15.335938 0.640625 -15.734375 C 0.753906 -16.128906 0.910156 -16.414062 1.109375 -16.59375 C 1.453125 -16.875 1.878906 -17.015625 2.390625 -17.015625 L 3.46875 -16.890625 L 3.46875 -20.21875 C 3.46875 -20.71875 3.484375 -21.085938 3.515625 -21.328125 C 3.546875 -21.566406 3.648438 -21.820312 3.828125 -22.09375 C 4.109375 -22.632812 4.9375 -22.90625 6.3125 -22.90625 C 7.78125 -22.90625 8.65625 -22.507812 8.9375 -21.71875 C 9.050781 -21.363281 9.109375 -20.8125 9.109375 -20.0625 L 9.109375 -16.890625 C 10.054688 -16.972656 10.769531 -17.015625 11.25 -17.015625 C 11.738281 -17.015625 12.109375 -17 12.359375 -16.96875 C 12.609375 -16.9375 12.894531 -16.832031 13.21875 -16.65625 C 13.78125 -16.375 14.0625 -15.539062 14.0625 -14.15625 C 14.0625 -12.800781 13.769531 -11.972656 13.1875 -11.671875 C 12.863281 -11.515625 12.578125 -11.421875 12.328125 -11.390625 C 12.078125 -11.359375 11.707031 -11.34375 11.21875 -11.34375 Z M 11.21875 -11.34375 "/></g></g></g><g fill="#f2f6fc" fill-opacity="1"><g transform="translate(199.890526, 32.726411)"><g><path d="M 8.875 -0.0625 C 6.695312 -0.0625 4.890625 -0.882812 3.453125 -2.53125 C 2.015625 -4.1875 1.296875 -6.207031 1.296875 -8.59375 L 1.296875 -14.265625 C 1.296875 -14.773438 1.3125 -15.148438 1.34375 -15.390625 C 1.375 -15.628906 1.46875 -15.910156 1.625 -16.234375 C 1.925781 -16.816406 2.765625 -17.109375 4.140625 -17.109375 C 5.660156 -17.109375 6.550781 -16.695312 6.8125 -15.875 C 6.9375 -15.53125 7 -14.976562 7 -14.21875 L 7 -8.5625 C 7 -7.675781 7.25 -6.984375 7.75 -6.484375 C 8.257812 -5.984375 8.941406 -5.734375 9.796875 -5.734375 C 10.648438 -5.734375 11.34375 -5.992188 11.875 -6.515625 C 12.40625 -7.035156 12.671875 -7.71875 12.671875 -8.5625 L 12.671875 -14.296875 C 12.671875 -14.785156 12.6875 -15.15625 12.71875 -15.40625 C 12.75 -15.65625 12.851562 -15.941406 13.03125 -16.265625 C 13.3125 -16.828125 14.140625 -17.109375 15.515625 -17.109375 C 16.878906 -17.109375 17.710938 -16.816406 18.015625 -16.234375 C 18.171875 -15.910156 18.265625 -15.625 18.296875 -15.375 C 18.328125 -15.125 18.34375 -14.753906 18.34375 -14.265625 L 18.34375 -2.78125 C 18.34375 -2.3125 18.328125 -1.953125 18.296875 -1.703125 C 18.265625 -1.453125 18.160156 -1.175781 17.984375 -0.875 C 17.660156 -0.3125 16.828125 -0.03125 15.484375 -0.03125 C 14.171875 -0.03125 13.363281 -0.289062 13.0625 -0.8125 C 12.84375 -1.175781 12.734375 -1.617188 12.734375 -2.140625 C 12.648438 -1.984375 12.457031 -1.765625 12.15625 -1.484375 C 11.851562 -1.203125 11.5625 -0.96875 11.28125 -0.78125 C 10.539062 -0.300781 9.738281 -0.0625 8.875 -0.0625 Z M 8.875 -0.0625 "/></g></g></g><g fill="#f2f6fc" fill-opacity="1"><g transform="translate(219.519171, 32.726411)"><g><path d="M 1.421875 -1.515625 C 1.015625 -1.773438 0.8125 -2.1875 0.8125 -2.75 C 0.8125 -3.3125 1.222656 -4.164062 2.046875 -5.3125 C 2.273438 -5.675781 2.65625 -5.859375 3.1875 -5.859375 C 3.71875 -5.859375 4.4375 -5.59375 5.34375 -5.0625 C 6.25 -4.539062 7.070312 -4.28125 7.8125 -4.28125 C 9.125 -4.28125 9.78125 -4.539062 9.78125 -5.0625 C 9.78125 -5.46875 9.054688 -5.769531 7.609375 -5.96875 C 6.253906 -6.15625 4.90625 -6.660156 3.5625 -7.484375 C 2.9375 -7.867188 2.414062 -8.476562 2 -9.3125 C 1.59375 -10.144531 1.390625 -11.132812 1.390625 -12.28125 C 1.390625 -15.695312 3.734375 -17.40625 8.421875 -17.40625 C 9.953125 -17.40625 11.53125 -17.035156 13.15625 -16.296875 C 13.914062 -15.953125 14.296875 -15.519531 14.296875 -15 C 14.296875 -14.476562 14.054688 -13.835938 13.578125 -13.078125 C 13.097656 -12.328125 12.613281 -11.953125 12.125 -11.953125 C 11.863281 -11.953125 11.378906 -12.113281 10.671875 -12.4375 C 9.972656 -12.769531 9.210938 -12.9375 8.390625 -12.9375 C 7.117188 -12.9375 6.484375 -12.695312 6.484375 -12.21875 C 6.484375 -11.570312 7.21875 -11.148438 8.6875 -10.953125 C 10.113281 -10.796875 11.492188 -10.382812 12.828125 -9.71875 C 13.453125 -9.414062 13.972656 -8.890625 14.390625 -8.140625 C 14.816406 -7.398438 15.03125 -6.46875 15.03125 -5.34375 C 15.03125 -4.21875 14.816406 -3.257812 14.390625 -2.46875 C 13.972656 -1.6875 13.390625 -1.101562 12.640625 -0.71875 C 11.253906 -0.0390625 9.519531 0.296875 7.4375 0.296875 C 5.351562 0.296875 3.347656 -0.304688 1.421875 -1.515625 Z M 1.421875 -1.515625 "/></g></g></g><g fill="#f2f6fc" fill-opacity="1"><g transform="translate(235.358127, 32.726411)"><g/></g></g><g fill="#f2f6fc" fill-opacity="1"><g transform="translate(243.552915, 32.726411)"><g><path d="M 1.296875 -14.21875 C 1.296875 -14.71875 1.3125 -15.09375 1.34375 -15.34375 C 1.375 -15.59375 1.46875 -15.878906 1.625 -16.203125 C 1.925781 -16.765625 2.765625 -17.046875 4.140625 -17.046875 C 5.179688 -17.046875 5.921875 -16.863281 6.359375 -16.5 C 6.722656 -16.195312 6.914062 -15.726562 6.9375 -15.09375 C 6.957031 -14.882812 6.96875 -14.570312 6.96875 -14.15625 L 6.96875 -2.8125 C 6.96875 -2.320312 6.953125 -1.953125 6.921875 -1.703125 C 6.890625 -1.453125 6.785156 -1.164062 6.609375 -0.84375 C 6.328125 -0.28125 5.492188 0 4.109375 0 C 2.753906 0 1.925781 -0.289062 1.625 -0.875 C 1.46875 -1.195312 1.375 -1.476562 1.34375 -1.71875 C 1.3125 -1.957031 1.296875 -2.335938 1.296875 -2.859375 Z M 6.625 -20.234375 C 6.46875 -19.921875 6.179688 -19.695312 5.765625 -19.5625 C 5.359375 -19.4375 4.8125 -19.375 4.125 -19.375 C 3.445312 -19.375 2.898438 -19.4375 2.484375 -19.5625 C 2.078125 -19.695312 1.789062 -19.925781 1.625 -20.25 C 1.46875 -20.570312 1.375 -20.859375 1.34375 -21.109375 C 1.3125 -21.359375 1.296875 -21.726562 1.296875 -22.21875 C 1.296875 -22.71875 1.3125 -23.09375 1.34375 -23.34375 C 1.375 -23.59375 1.46875 -23.867188 1.625 -24.171875 C 1.925781 -24.753906 2.765625 -25.046875 4.140625 -25.046875 C 5.503906 -25.046875 6.328125 -24.753906 6.609375 -24.171875 C 6.785156 -23.847656 6.890625 -23.5625 6.921875 -23.3125 C 6.953125 -23.0625 6.96875 -22.6875 6.96875 -22.1875 C 6.96875 -21.695312 6.953125 -21.328125 6.921875 -21.078125 C 6.890625 -20.828125 6.789062 -20.546875 6.625 -20.234375 Z M 6.625 -20.234375 "/></g></g></g><g fill="#f2f6fc" fill-opacity="1"><g transform="translate(251.812494, 32.726411)"><g><path d="M 12.75 -24.1875 C 12.914062 -24.5 13.203125 -24.71875 13.609375 -24.84375 C 14.015625 -24.976562 14.554688 -25.046875 15.234375 -25.046875 C 15.921875 -25.046875 16.46875 -24.976562 16.875 -24.84375 C 17.289062 -24.71875 17.578125 -24.492188 17.734375 -24.171875 C 17.898438 -23.847656 18 -23.5625 18.03125 -23.3125 C 18.0625 -23.0625 18.078125 -22.691406 18.078125 -22.203125 L 18.078125 -2.859375 C 18.078125 -2.359375 18.0625 -1.984375 18.03125 -1.734375 C 18 -1.484375 17.894531 -1.207031 17.71875 -0.90625 C 17.394531 -0.320312 16.484375 -0.03125 14.984375 -0.03125 C 13.484375 -0.03125 12.644531 -0.5625 12.46875 -1.625 C 11.5625 -0.582031 10.300781 -0.0625 8.6875 -0.0625 C 6.738281 -0.0625 4.960938 -0.910156 3.359375 -2.609375 C 1.765625 -4.304688 0.96875 -6.28125 0.96875 -8.53125 C 0.96875 -10.789062 1.769531 -12.773438 3.375 -14.484375 C 4.988281 -16.191406 6.757812 -17.046875 8.6875 -17.046875 C 10.28125 -17.046875 11.519531 -16.503906 12.40625 -15.421875 L 12.40625 -22.234375 C 12.40625 -22.722656 12.421875 -23.09375 12.453125 -23.34375 C 12.492188 -23.59375 12.59375 -23.875 12.75 -24.1875 Z M 7.484375 -6.578125 C 8.046875 -5.992188 8.722656 -5.703125 9.515625 -5.703125 C 10.316406 -5.703125 10.984375 -5.992188 11.515625 -6.578125 C 12.046875 -7.160156 12.3125 -7.800781 12.3125 -8.5 C 12.3125 -9.207031 12.054688 -9.863281 11.546875 -10.46875 C 11.046875 -11.070312 10.363281 -11.375 9.5 -11.375 C 8.632812 -11.375 7.941406 -11.078125 7.421875 -10.484375 C 6.898438 -9.890625 6.640625 -9.234375 6.640625 -8.515625 C 6.640625 -7.804688 6.921875 -7.160156 7.484375 -6.578125 Z M 7.484375 -6.578125 "/></g></g></g><g fill="#f2f6fc" fill-opacity="1"><g transform="translate(271.182023, 32.726411)"><g><path d="M 17.765625 -10.578125 C 17.765625 -9.253906 17.429688 -8.269531 16.765625 -7.625 C 16.109375 -6.988281 15.378906 -6.671875 14.578125 -6.671875 L 6.90625 -6.671875 C 6.90625 -6.066406 7.257812 -5.554688 7.96875 -5.140625 C 8.6875 -4.734375 9.398438 -4.53125 10.109375 -4.53125 C 11.359375 -4.53125 12.34375 -4.660156 13.0625 -4.921875 L 13.421875 -5.0625 C 13.929688 -5.289062 14.363281 -5.40625 14.71875 -5.40625 C 15.40625 -5.40625 16 -4.921875 16.5 -3.953125 C 16.78125 -3.367188 16.921875 -2.875 16.921875 -2.46875 C 16.921875 -0.539062 14.617188 0.421875 10.015625 0.421875 C 8.410156 0.421875 6.988281 0.144531 5.75 -0.40625 C 4.507812 -0.957031 3.546875 -1.6875 2.859375 -2.59375 C 1.492188 -4.34375 0.8125 -6.296875 0.8125 -8.453125 C 0.8125 -11.179688 1.691406 -13.359375 3.453125 -14.984375 C 5.210938 -16.617188 7.410156 -17.4375 10.046875 -17.4375 C 13.046875 -17.4375 15.25 -16.378906 16.65625 -14.265625 C 17.394531 -13.140625 17.765625 -11.910156 17.765625 -10.578125 Z M 10.921875 -9.625 C 11.742188 -9.625 12.15625 -9.96875 12.15625 -10.65625 C 12.15625 -11.15625 11.960938 -11.554688 11.578125 -11.859375 C 11.203125 -12.160156 10.660156 -12.3125 9.953125 -12.3125 C 9.253906 -12.3125 8.5625 -12.023438 7.875 -11.453125 C 7.1875 -10.878906 6.84375 -10.269531 6.84375 -9.625 Z M 10.921875 -9.625 "/></g></g></g><g fill="#f2f6fc" fill-opacity="1"><g transform="translate(289.741769, 32.726411)"><g><path d="M 12.375 -15.265625 C 12.507812 -16.472656 13.363281 -17.078125 14.9375 -17.078125 C 15.78125 -17.078125 16.40625 -17.007812 16.8125 -16.875 C 17.226562 -16.75 17.515625 -16.523438 17.671875 -16.203125 C 17.835938 -15.878906 17.9375 -15.59375 17.96875 -15.34375 C 18 -15.09375 18.015625 -14.71875 18.015625 -14.21875 L 18.015625 -2.890625 C 18.015625 -2.390625 18 -2.015625 17.96875 -1.765625 C 17.9375 -1.515625 17.84375 -1.226562 17.6875 -0.90625 C 17.382812 -0.34375 16.644531 -0.0625 15.46875 -0.0625 C 14.289062 -0.0625 13.503906 -0.207031 13.109375 -0.5 C 12.710938 -0.789062 12.476562 -1.21875 12.40625 -1.78125 C 11.613281 -0.632812 10.28125 -0.0625 8.40625 -0.0625 C 6.539062 -0.0625 4.804688 -0.914062 3.203125 -2.625 C 1.609375 -4.332031 0.8125 -6.3125 0.8125 -8.5625 C 0.8125 -10.820312 1.613281 -12.800781 3.21875 -14.5 C 4.832031 -16.195312 6.597656 -17.046875 8.515625 -17.046875 C 9.253906 -17.046875 9.925781 -16.914062 10.53125 -16.65625 C 11.132812 -16.394531 11.554688 -16.148438 11.796875 -15.921875 C 12.035156 -15.703125 12.226562 -15.484375 12.375 -15.265625 Z M 6.484375 -8.515625 C 6.484375 -7.804688 6.765625 -7.164062 7.328125 -6.59375 C 7.890625 -6.019531 8.566406 -5.734375 9.359375 -5.734375 C 10.160156 -5.734375 10.828125 -6.023438 11.359375 -6.609375 C 11.890625 -7.191406 12.15625 -7.832031 12.15625 -8.53125 C 12.15625 -9.238281 11.898438 -9.894531 11.390625 -10.5 C 10.878906 -11.101562 10.195312 -11.40625 9.34375 -11.40625 C 8.488281 -11.40625 7.796875 -11.101562 7.265625 -10.5 C 6.742188 -9.894531 6.484375 -9.234375 6.484375 -8.515625 Z M 6.484375 -8.515625 "/></g></g></g><g fill="#f2f6fc" fill-opacity="1"><g transform="translate(309.046507, 32.726411)"><g><path d="M 1.421875 -1.515625 C 1.015625 -1.773438 0.8125 -2.1875 0.8125 -2.75 C 0.8125 -3.3125 1.222656 -4.164062 2.046875 -5.3125 C 2.273438 -5.675781 2.65625 -5.859375 3.1875 -5.859375 C 3.71875 -5.859375 4.4375 -5.59375 5.34375 -5.0625 C 6.25 -4.539062 7.070312 -4.28125 7.8125 -4.28125 C 9.125 -4.28125 9.78125 -4.539062 9.78125 -5.0625 C 9.78125 -5.46875 9.054688 -5.769531 7.609375 -5.96875 C 6.253906 -6.15625 4.90625 -6.660156 3.5625 -7.484375 C 2.9375 -7.867188 2.414062 -8.476562 2 -9.3125 C 1.59375 -10.144531 1.390625 -11.132812 1.390625 -12.28125 C 1.390625 -15.695312 3.734375 -17.40625 8.421875 -17.40625 C 9.953125 -17.40625 11.53125 -17.035156 13.15625 -16.296875 C 13.914062 -15.953125 14.296875 -15.519531 14.296875 -15 C 14.296875 -14.476562 14.054688 -13.835938 13.578125 -13.078125 C 13.097656 -12.328125 12.613281 -11.953125 12.125 -11.953125 C 11.863281 -11.953125 11.378906 -12.113281 10.671875 -12.4375 C 9.972656 -12.769531 9.210938 -12.9375 8.390625 -12.9375 C 7.117188 -12.9375 6.484375 -12.695312 6.484375 -12.21875 C 6.484375 -11.570312 7.21875 -11.148438 8.6875 -10.953125 C 10.113281 -10.796875 11.492188 -10.382812 12.828125 -9.71875 C 13.453125 -9.414062 13.972656 -8.890625 14.390625 -8.140625 C 14.816406 -7.398438 15.03125 -6.46875 15.03125 -5.34375 C 15.03125 -4.21875 14.816406 -3.257812 14.390625 -2.46875 C 13.972656 -1.6875 13.390625 -1.101562 12.640625 -0.71875 C 11.253906 -0.0390625 9.519531 0.296875 7.4375 0.296875 C 5.351562 0.296875 3.347656 -0.304688 1.421875 -1.515625 Z M 1.421875 -1.515625 "/></g></g></g></g></svg>